<svg xmlns="http://www.w3.org/2000/svg" width="1600" height="300"><rect x="100" y="50" width="1400" height="200" fill="rgba(221, 239, 250, .3)"></rect><clipPath id="theGraph"><rect x="100" y="50" width="1400" height="200" fill="black"></rect></clipPath><rect x="100" y="280" width="15" height="15" fill="#51565E" stroke="black" stroke-width="0.25"></rect><text x="120" y="295" font-family="Arial" font-size="12" fill="black">Not started</text><rect x="220" y="280" width="15" height="15" fill="#FF6666" stroke="black" stroke-width="0.25"></rect><text x="240" y="295" font-family="Arial" font-size="12" fill="black">BLOCKED</text><rect x="340" y="280" width="15" height="15" fill="#41659E" stroke="black" stroke-width="0.25"></rect><text x="360" y="295" font-family="Arial" font-size="12" fill="black">Scheduled</text><rect x="460" y="280" width="15" height="15" fill="#519E41" stroke="black" stroke-width="0.25"></rect><text x="480" y="295" font-family="Arial" font-size="12" fill="black">In progress</text><path d="M 100 246 M 100 246 C 100 246 566.6666662320495 246 566.6666662320495 246 C 566.6666662320495 246 1033.3333337679505 246 1033.3333337679505 246 C 1126.3333337679505 246 1407.0000000000002 60 1500.0000000000002 60 C 1500.0000000000002 60 1500.0000000000002 250 1500.0000000000002 250 C 1500.0000000000002 250 100 250 100 250 Z" fill="#519E41" stroke="black" stroke-width="0.25"></path><path d="M 100 246 M 100 246 C 100 246 566.6666662320495 246 566.6666662320495 246 C 566.6666662320495 246 1033.3333337679505 246 1033.3333337679505 246 C 1126.3333337679505 246 1407.0000000000002 60 1500.0000000000002 60 C 1500.0000000000002 60 1500.0000000000002 250 1500.0000000000002 250 C 1500.0000000000002 250 100 250 100 250 Z" fill="#41659E" stroke="black" stroke-width="0.25"></path><path d="M 100 246 M 100 246 C 100 246 566.6666662320495 246 566.6666662320495 246 C 566.6666662320495 246 1033.3333337679505 246 1033.3333337679505 246 C 1126.3333337679505 246 1407.0000000000002 60 1500.0000000000002 60 C 1500.0000000000002 60 1500.0000000000002 250 1500.0000000000002 250 C 1500.0000000000002 250 100 250 100 250 Z" fill="#FF6666" stroke="black" stroke-width="0.25"></path><path d="M 100 246 M 100 246 C 100 246 566.6666662320495 246 566.6666662320495 246 C 566.6666662320495 246 1033.3333337679505 246 1033.3333337679505 246 C 1125.3333337679505 246 1408.0000000000002 62 1500.0000000000002 62 C 1500.0000000000002 62 1500.0000000000002 250 1500.0000000000002 250 C 1500.0000000000002 250 100 250 100 250 Z" fill="#51565E" stroke="black" stroke-width="0.25"></path><text x="800" y="70" font-family="Arial" font-size="16" fill="black" text-anchor="middle" alignment-baseline="middle">SCAN TYPE SPECIMENS: VERTEBRATE PALEONTOLOGY</text><rect x="100" y="250" width="1400" height="2" fill="black"></rect><rect x="100" y="50" width="5" height="2" fill="black"></rect><rect x="100" y="52" width="5" height="2" fill="black"></rect><rect x="100" y="54" width="5" height="2" fill="black"></rect><rect x="100" y="56" width="5" height="2" fill="black"></rect><rect x="100" y="58" width="5" height="2" fill="black"></rect><rect x="100" y="60" width="5" height="2" fill="black"></rect><rect x="100" y="62" width="5" height="2" fill="black"></rect><rect x="100" y="64" width="5" height="2" fill="black"></rect><rect x="100" y="66" width="5" height="2" fill="black"></rect><rect x="100" y="68" width="5" height="2" fill="black"></rect><rect x="100" y="70" width="5" height="2" fill="black"></rect><rect x="100" y="72" width="5" height="2" fill="black"></rect><rect x="100" y="74" width="5" height="2" fill="black"></rect><rect x="100" y="76" width="5" height="2" fill="black"></rect><rect x="100" y="78" width="5" height="2" fill="black"></rect><rect x="100" y="80" width="5" height="2" fill="black"></rect><rect x="100" y="82" width="5" height="2" fill="black"></rect><rect x="100" y="84" width="5" height="2" fill="black"></rect><rect x="100" y="86" width="5" height="2" fill="black"></rect><rect x="100" y="88" width="5" height="2" fill="black"></rect><rect x="100" y="90" width="5" height="2" fill="black"></rect><rect x="100" y="92" width="5" height="2" fill="black"></rect><rect x="100" y="94" width="5" height="2" fill="black"></rect><rect x="100" y="96" width="5" height="2" fill="black"></rect><rect x="100" y="98" width="5" height="2" fill="black"></rect><rect x="100" y="100" width="5" height="2" fill="black"></rect><rect x="100" y="102" width="5" height="2" fill="black"></rect><rect x="100" y="104" width="5" height="2" fill="black"></rect><rect x="100" y="106" width="5" height="2" fill="black"></rect><rect x="100" y="108" width="5" height="2" fill="black"></rect><rect x="100" y="110" width="5" height="2" fill="black"></rect><rect x="100" y="112" width="5" height="2" fill="black"></rect><rect x="100" y="114" width="5" height="2" fill="black"></rect><rect x="100" y="116" width="5" height="2" fill="black"></rect><rect x="100" y="118" width="5" height="2" fill="black"></rect><rect x="100" y="120" width="5" height="2" fill="black"></rect><rect x="100" y="122" width="5" height="2" fill="black"></rect><rect x="100" y="124" width="5" height="2" fill="black"></rect><rect x="100" y="126" width="5" height="2" fill="black"></rect><rect x="100" y="128" width="5" height="2" fill="black"></rect><rect x="100" y="130" width="5" height="2" fill="black"></rect><rect x="100" y="132" width="5" height="2" fill="black"></rect><rect x="100" y="134" width="5" height="2" fill="black"></rect><rect x="100" y="136" width="5" height="2" fill="black"></rect><rect x="100" y="138" width="5" height="2" fill="black"></rect><rect x="100" y="140" width="5" height="2" fill="black"></rect><rect x="100" y="142" width="5" height="2" fill="black"></rect><rect x="100" y="144" width="5" height="2" fill="black"></rect><rect x="100" y="146" width="5" height="2" fill="black"></rect><rect x="100" y="148" width="5" height="2" fill="black"></rect><rect x="100" y="150" width="5" height="2" fill="black"></rect><rect x="100" y="152" width="5" height="2" fill="black"></rect><rect x="100" y="154" width="5" height="2" fill="black"></rect><rect x="100" y="156" width="5" height="2" fill="black"></rect><rect x="100" y="158" width="5" height="2" fill="black"></rect><rect x="100" y="160" width="5" height="2" fill="black"></rect><rect x="100" y="162" width="5" height="2" fill="black"></rect><rect x="100" y="164" width="5" height="2" fill="black"></rect><rect x="100" y="166" width="5" height="2" fill="black"></rect><rect x="100" y="168" width="5" height="2" fill="black"></rect><rect x="100" y="170" width="5" height="2" fill="black"></rect><rect x="100" y="172" width="5" height="2" fill="black"></rect><rect x="100" y="174" width="5" height="2" fill="black"></rect><rect x="100" y="176" width="5" height="2" fill="black"></rect><rect x="100" y="178" width="5" height="2" fill="black"></rect><rect x="100" y="180" width="5" height="2" fill="black"></rect><rect x="100" y="182" width="5" height="2" fill="black"></rect><rect x="100" y="184" width="5" height="2" fill="black"></rect><rect x="100" y="186" width="5" height="2" fill="black"></rect><rect x="100" y="188" width="5" height="2" fill="black"></rect><rect x="100" y="190" width="5" height="2" fill="black"></rect><rect x="100" y="192" width="5" height="2" fill="black"></rect><rect x="100" y="194" width="5" height="2" fill="black"></rect><rect x="100" y="196" width="5" height="2" fill="black"></rect><rect x="100" y="198" width="5" height="2" fill="black"></rect><rect x="100" y="200" width="5" height="2" fill="black"></rect><rect x="100" y="202" width="5" height="2" fill="black"></rect><rect x="100" y="204" width="5" height="2" fill="black"></rect><rect x="100" y="206" width="5" height="2" fill="black"></rect><rect x="100" y="208" width="5" height="2" fill="black"></rect><rect x="100" y="210" width="5" height="2" fill="black"></rect><rect x="100" y="212" width="5" height="2" fill="black"></rect><rect x="100" y="214" width="5" height="2" fill="black"></rect><rect x="100" y="216" width="5" height="2" fill="black"></rect><rect x="100" y="218" width="5" height="2" fill="black"></rect><rect x="100" y="220" width="5" height="2" fill="black"></rect><rect x="100" y="222" width="5" height="2" fill="black"></rect><rect x="100" y="224" width="5" height="2" fill="black"></rect><rect x="100" y="226" width="5" height="2" fill="black"></rect><rect x="100" y="228" width="5" height="2" fill="black"></rect><rect x="100" y="230" width="5" height="2" fill="black"></rect><rect x="100" y="232" width="5" height="2" fill="black"></rect><rect x="100" y="234" width="5" height="2" fill="black"></rect><rect x="100" y="236" width="5" height="2" fill="black"></rect><rect x="100" y="238" width="5" height="2" fill="black"></rect><rect x="100" y="240" width="5" height="2" fill="black"></rect><rect x="100" y="242" width="5" height="2" fill="black"></rect><rect x="100" y="244" width="5" height="2" fill="black"></rect><rect x="100" y="246" width="5" height="2" fill="black"></rect><rect x="100" y="248" width="5" height="2" fill="black"></rect><text x="90" y="50" font-family="Arial" font-size="12" fill="black" text-anchor="end" dominant-baseline="middle">100</text><text x="90" y="52" font-family="Arial" font-size="12" fill="black" text-anchor="end" dominant-baseline="middle"></text><text x="90" y="54" font-family="Arial" font-size="12" fill="black" text-anchor="end" dominant-baseline="middle"></text><text x="90" y="56" font-family="Arial" font-size="12" fill="black" text-anchor="end" dominant-baseline="middle"></text><text x="90" y="58" font-family="Arial" font-size="12" fill="black" text-anchor="end" dominant-baseline="middle"></text><text x="90" y="60" font-family="Arial" font-size="12" fill="black" text-anchor="end" dominant-baseline="middle"></text><text x="90" y="62" font-family="Arial" font-size="12" fill="black" text-anchor="end" dominant-baseline="middle"></text><text x="90" y="64" font-family="Arial" font-size="12" fill="black" text-anchor="end" dominant-baseline="middle"></text><text x="90" y="66" font-family="Arial" font-size="12" fill="black" text-anchor="end" dominant-baseline="middle"></text><text x="90" y="68" font-family="Arial" font-size="12" fill="black" text-anchor="end" dominant-baseline="middle"></text><text x="90" y="70" font-family="Arial" font-size="12" fill="black" text-anchor="end" dominant-baseline="middle">90</text><text x="90" y="72" font-family="Arial" font-size="12" fill="black" text-anchor="end" dominant-baseline="middle"></text><text x="90" y="74" font-family="Arial" font-size="12" fill="black" text-anchor="end" dominant-baseline="middle"></text><text x="90" y="76" font-family="Arial" font-size="12" fill="black" text-anchor="end" dominant-baseline="middle"></text><text x="90" y="78" font-family="Arial" font-size="12" fill="black" text-anchor="end" dominant-baseline="middle"></text><text x="90" y="80" font-family="Arial" font-size="12" fill="black" text-anchor="end" dominant-baseline="middle"></text><text x="90" y="82" font-family="Arial" font-size="12" fill="black" text-anchor="end" dominant-baseline="middle"></text><text x="90" y="84" font-family="Arial" font-size="12" fill="black" text-anchor="end" dominant-baseline="middle"></text><text x="90" y="86" font-family="Arial" font-size="12" fill="black" text-anchor="end" dominant-baseline="middle"></text><text x="90" y="88" font-family="Arial" font-size="12" fill="black" text-anchor="end" dominant-baseline="middle"></text><text x="90" y="90" font-family="Arial" font-size="12" fill="black" text-anchor="end" dominant-baseline="middle">80</text><text x="90" y="92" font-family="Arial" font-size="12" fill="black" text-anchor="end" dominant-baseline="middle"></text><text x="90" y="94" font-family="Arial" font-size="12" fill="black" text-anchor="end" dominant-baseline="middle"></text><text x="90" y="96" font-family="Arial" font-size="12" fill="black" text-anchor="end" dominant-baseline="middle"></text><text x="90" y="98" font-family="Arial" font-size="12" fill="black" text-anchor="end" dominant-baseline="middle"></text><text x="90" y="100" font-family="Arial" font-size="12" fill="black" text-anchor="end" dominant-baseline="middle"></text><text x="90" y="102" font-family="Arial" font-size="12" fill="black" text-anchor="end" dominant-baseline="middle"></text><text x="90" y="104" font-family="Arial" font-size="12" fill="black" text-anchor="end" dominant-baseline="middle"></text><text x="90" y="106" font-family="Arial" font-size="12" fill="black" text-anchor="end" dominant-baseline="middle"></text><text x="90" y="108" font-family="Arial" font-size="12" fill="black" text-anchor="end" dominant-baseline="middle"></text><text x="90" y="110" font-family="Arial" font-size="12" fill="black" text-anchor="end" dominant-baseline="middle">70</text><text x="90" y="112" font-family="Arial" font-size="12" fill="black" text-anchor="end" dominant-baseline="middle"></text><text x="90" y="114" font-family="Arial" font-size="12" fill="black" text-anchor="end" dominant-baseline="middle"></text><text x="90" y="116" font-family="Arial" font-size="12" fill="black" text-anchor="end" dominant-baseline="middle"></text><text x="90" y="118" font-family="Arial" font-size="12" fill="black" text-anchor="end" dominant-baseline="middle"></text><text x="90" y="120" font-family="Arial" font-size="12" fill="black" text-anchor="end" dominant-baseline="middle"></text><text x="90" y="122" font-family="Arial" font-size="12" fill="black" text-anchor="end" dominant-baseline="middle"></text><text x="90" y="124" font-family="Arial" font-size="12" fill="black" text-anchor="end" dominant-baseline="middle"></text><text x="90" y="126" font-family="Arial" font-size="12" fill="black" text-anchor="end" dominant-baseline="middle"></text><text x="90" y="128" font-family="Arial" font-size="12" fill="black" text-anchor="end" dominant-baseline="middle"></text><text x="90" y="130" font-family="Arial" font-size="12" fill="black" text-anchor="end" dominant-baseline="middle">60</text><text x="90" y="132" font-family="Arial" font-size="12" fill="black" text-anchor="end" dominant-baseline="middle"></text><text x="90" y="134" font-family="Arial" font-size="12" fill="black" text-anchor="end" dominant-baseline="middle"></text><text x="90" y="136" font-family="Arial" font-size="12" fill="black" text-anchor="end" dominant-baseline="middle"></text><text x="90" y="138" font-family="Arial" font-size="12" fill="black" text-anchor="end" dominant-baseline="middle"></text><text x="90" y="140" font-family="Arial" font-size="12" fill="black" text-anchor="end" dominant-baseline="middle"></text><text x="90" y="142" font-family="Arial" font-size="12" fill="black" text-anchor="end" dominant-baseline="middle"></text><text x="90" y="144" font-family="Arial" font-size="12" fill="black" text-anchor="end" dominant-baseline="middle"></text><text x="90" y="146" font-family="Arial" font-size="12" fill="black" text-anchor="end" dominant-baseline="middle"></text><text x="90" y="148" font-family="Arial" font-size="12" fill="black" text-anchor="end" dominant-baseline="middle"></text><text x="90" y="150" font-family="Arial" font-size="12" fill="black" text-anchor="end" dominant-baseline="middle">50</text><text x="90" y="152" font-family="Arial" font-size="12" fill="black" text-anchor="end" dominant-baseline="middle"></text><text x="90" y="154" font-family="Arial" font-size="12" fill="black" text-anchor="end" dominant-baseline="middle"></text><text x="90" y="156" font-family="Arial" font-size="12" fill="black" text-anchor="end" dominant-baseline="middle"></text><text x="90" y="158" font-family="Arial" font-size="12" fill="black" text-anchor="end" dominant-baseline="middle"></text><text x="90" y="160" font-family="Arial" font-size="12" fill="black" text-anchor="end" dominant-baseline="middle"></text><text x="90" y="162" font-family="Arial" font-size="12" fill="black" text-anchor="end" dominant-baseline="middle"></text><text x="90" y="164" font-family="Arial" font-size="12" fill="black" text-anchor="end" dominant-baseline="middle"></text><text x="90" y="166" font-family="Arial" font-size="12" fill="black" text-anchor="end" dominant-baseline="middle"></text><text x="90" y="168" font-family="Arial" font-size="12" fill="black" text-anchor="end" dominant-baseline="middle"></text><text x="90" y="170" font-family="Arial" font-size="12" fill="black" text-anchor="end" dominant-baseline="middle">40</text><text x="90" y="172" font-family="Arial" font-size="12" fill="black" text-anchor="end" dominant-baseline="middle"></text><text x="90" y="174" font-family="Arial" font-size="12" fill="black" text-anchor="end" dominant-baseline="middle"></text><text x="90" y="176" font-family="Arial" font-size="12" fill="black" text-anchor="end" dominant-baseline="middle"></text><text x="90" y="178" font-family="Arial" font-size="12" fill="black" text-anchor="end" dominant-baseline="middle"></text><text x="90" y="180" font-family="Arial" font-size="12" fill="black" text-anchor="end" dominant-baseline="middle"></text><text x="90" y="182" font-family="Arial" font-size="12" fill="black" text-anchor="end" dominant-baseline="middle"></text><text x="90" y="184" font-family="Arial" font-size="12" fill="black" text-anchor="end" dominant-baseline="middle"></text><text x="90" y="186" font-family="Arial" font-size="12" fill="black" text-anchor="end" dominant-baseline="middle"></text><text x="90" y="188" font-family="Arial" font-size="12" fill="black" text-anchor="end" dominant-baseline="middle"></text><text x="90" y="190" font-family="Arial" font-size="12" fill="black" text-anchor="end" dominant-baseline="middle">30</text><text x="90" y="192" font-family="Arial" font-size="12" fill="black" text-anchor="end" dominant-baseline="middle"></text><text x="90" y="194" font-family="Arial" font-size="12" fill="black" text-anchor="end" dominant-baseline="middle"></text><text x="90" y="196" font-family="Arial" font-size="12" fill="black" text-anchor="end" dominant-baseline="middle"></text><text x="90" y="198" font-family="Arial" font-size="12" fill="black" text-anchor="end" dominant-baseline="middle"></text><text x="90" y="200" font-family="Arial" font-size="12" fill="black" text-anchor="end" dominant-baseline="middle"></text><text x="90" y="202" font-family="Arial" font-size="12" fill="black" text-anchor="end" dominant-baseline="middle"></text><text x="90" y="204" font-family="Arial" font-size="12" fill="black" text-anchor="end" dominant-baseline="middle"></text><text x="90" y="206" font-family="Arial" font-size="12" fill="black" text-anchor="end" dominant-baseline="middle"></text><text x="90" y="208" font-family="Arial" font-size="12" fill="black" text-anchor="end" dominant-baseline="middle"></text><text x="90" y="210" font-family="Arial" font-size="12" fill="black" text-anchor="end" dominant-baseline="middle">20</text><text x="90" y="212" font-family="Arial" font-size="12" fill="black" text-anchor="end" dominant-baseline="middle"></text><text x="90" y="214" font-family="Arial" font-size="12" fill="black" text-anchor="end" dominant-baseline="middle"></text><text x="90" y="216" font-family="Arial" font-size="12" fill="black" text-anchor="end" dominant-baseline="middle"></text><text x="90" y="218" font-family="Arial" font-size="12" fill="black" text-anchor="end" dominant-baseline="middle"></text><text x="90" y="220" font-family="Arial" font-size="12" fill="black" text-anchor="end" dominant-baseline="middle"></text><text x="90" y="222" font-family="Arial" font-size="12" fill="black" text-anchor="end" dominant-baseline="middle"></text><text x="90" y="224" font-family="Arial" font-size="12" fill="black" text-anchor="end" dominant-baseline="middle"></text><text x="90" y="226" font-family="Arial" font-size="12" fill="black" text-anchor="end" dominant-baseline="middle"></text><text x="90" y="228" font-family="Arial" font-size="12" fill="black" text-anchor="end" dominant-baseline="middle"></text><text x="90" y="230" font-family="Arial" font-size="12" fill="black" text-anchor="end" dominant-baseline="middle">10</text><text x="90" y="232" font-family="Arial" font-size="12" fill="black" text-anchor="end" dominant-baseline="middle"></text><text x="90" y="234" font-family="Arial" font-size="12" fill="black" text-anchor="end" dominant-baseline="middle"></text><text x="90" y="236" font-family="Arial" font-size="12" fill="black" text-anchor="end" dominant-baseline="middle"></text><text x="90" y="238" font-family="Arial" font-size="12" fill="black" text-anchor="end" dominant-baseline="middle"></text><text x="90" y="240" font-family="Arial" font-size="12" fill="black" text-anchor="end" dominant-baseline="middle"></text><text x="90" y="242" font-family="Arial" font-size="12" fill="black" text-anchor="end" dominant-baseline="middle"></text><text x="90" y="244" font-family="Arial" font-size="12" fill="black" text-anchor="end" dominant-baseline="middle"></text><text x="90" y="246" font-family="Arial" font-size="12" fill="black" text-anchor="end" dominant-baseline="middle"></text><text x="90" y="248" font-family="Arial" font-size="12" fill="black" text-anchor="end" dominant-baseline="middle"></text><text x="90" y="250" font-family="Arial" font-size="12" fill="black" text-anchor="end" dominant-baseline="middle">0</text><text x="100" y="260" font-family="Arial" fill="black" text-anchor="middle" dominant-baseline="hanging">Jul 20, '23</text><text x="566" y="260" font-family="Arial" fill="black" text-anchor="middle" dominant-baseline="hanging">21</text><text x="1032" y="260" font-family="Arial" fill="black" text-anchor="middle" dominant-baseline="hanging">22</text><text x="1498" y="260" font-family="Arial" fill="black" text-anchor="middle" dominant-baseline="hanging">23</text><rect x="100" y="50" width="2" height="200" fill="black"></rect><rect x="566" y="230" width="2" height="20" fill="black"></rect><rect x="1032" y="230" width="2" height="20" fill="black"></rect><rect x="1498" y="230" width="2" height="20" fill="black"></rect></svg>