<svg xmlns="http://www.w3.org/2000/svg" width="1600" height="300"><rect x="100" y="50" width="1400" height="200" fill="rgba(221, 239, 250, .3)"></rect><clipPath id="theGraph"><rect x="100" y="50" width="1400" height="200" fill="black"></rect></clipPath><rect x="100" y="280" width="15" height="15" fill="#51565E" stroke="black" stroke-width="0.25"></rect><text x="120" y="295" font-family="Arial" font-size="12" fill="black">Not started</text><rect x="220" y="280" width="15" height="15" fill="#FF6666" stroke="black" stroke-width="0.25"></rect><text x="240" y="295" font-family="Arial" font-size="12" fill="black">BLOCKED</text><rect x="340" y="280" width="15" height="15" fill="#41659E" stroke="black" stroke-width="0.25"></rect><text x="360" y="295" font-family="Arial" font-size="12" fill="black">Scheduled</text><rect x="460" y="280" width="15" height="15" fill="#519E41" stroke="black" stroke-width="0.25"></rect><text x="480" y="295" font-family="Arial" font-size="12" fill="black">In progress</text><path d="M 100 75 M 100 75 C 100 75 333.333333581686 75 333.333333581686 75 C 333.333333581686 75 566.666666418314 75 566.666666418314 75 C 566.666666418314 75 800 75 800 75 C 800 75 1033.333333581686 75 1033.333333581686 75 C 1033.333333581686 75 1266.666666418314 75 1266.666666418314 75 C 1266.666666418314 75 1500 75 1500 75 C 1500 75 1500 250 1500 250 C 1500 250 100 250 100 250 Z" fill="#519E41" stroke="black" stroke-width="0.25"></path><path d="M 100 100 M 100 100 C 100 100 333.333333581686 100 333.333333581686 100 C 333.333333581686 100 566.666666418314 100 566.666666418314 100 C 566.666666418314 100 800 100 800 100 C 804.1666666666666 100 1029.1666669150193 108.33333333333331 1033.333333581686 108.33333333333331 C 1033.333333581686 108.33333333333331 1266.666666418314 108.33333333333331 1266.666666418314 108.33333333333331 C 1266.666666418314 108.33333333333331 1500 108.33333333333331 1500 108.33333333333331 C 1500 108.33333333333331 1500 250 1500 250 C 1500 250 100 250 100 250 Z" fill="#41659E" stroke="black" stroke-width="0.25"></path><path d="M 100 225 M 100 225 C 100 225 333.333333581686 225 333.333333581686 225 C 333.333333581686 225 566.666666418314 225 566.666666418314 225 C 566.666666418314 225 800 225 800 225 C 804.1666666666666 225 1029.1666669150193 233.33333333333334 1033.333333581686 233.33333333333334 C 1033.333333581686 233.33333333333334 1266.666666418314 233.33333333333334 1266.666666418314 233.33333333333334 C 1266.666666418314 233.33333333333334 1500 233.33333333333334 1500 233.33333333333334 C 1500 233.33333333333334 1500 250 1500 250 C 1500 250 100 250 100 250 Z" fill="#FF6666" stroke="black" stroke-width="0.25"></path><path d="M 100 225 M 100 225 C 100 225 333.333333581686 225 333.333333581686 225 C 333.333333581686 225 566.666666418314 225 566.666666418314 225 C 566.666666418314 225 800 225 800 225 C 804.1666666666666 225 1029.1666669150193 233.33333333333334 1033.333333581686 233.33333333333334 C 1033.333333581686 233.33333333333334 1266.666666418314 233.33333333333334 1266.666666418314 233.33333333333334 C 1266.666666418314 233.33333333333334 1500 233.33333333333334 1500 233.33333333333334 C 1500 233.33333333333334 1500 250 1500 250 C 1500 250 100 250 100 250 Z" fill="#51565E" stroke="black" stroke-width="0.25"></path><text x="800" y="70" font-family="Arial" font-size="16" fill="black" text-anchor="middle" alignment-baseline="middle">PHASE 1 - PLANNING</text><rect x="100" y="250" width="1400" height="2" fill="black"></rect><rect x="100" y="50" width="5" height="2" fill="black"></rect><rect x="100" y="58.333333333333336" width="5" height="2" fill="black"></rect><rect x="100" y="66.66666666666667" width="5" height="2" fill="black"></rect><rect x="100" y="75" width="5" height="2" fill="black"></rect><rect x="100" y="83.33333333333334" width="5" height="2" fill="black"></rect><rect x="100" y="91.66666666666667" width="5" height="2" fill="black"></rect><rect x="100" y="100" width="5" height="2" fill="black"></rect><rect x="100" y="108.33333333333334" width="5" height="2" fill="black"></rect><rect x="100" y="116.66666666666667" width="5" height="2" fill="black"></rect><rect x="100" y="125" width="5" height="2" fill="black"></rect><rect x="100" y="133.33333333333334" width="5" height="2" fill="black"></rect><rect x="100" y="141.66666666666669" width="5" height="2" fill="black"></rect><rect x="100" y="150" width="5" height="2" fill="black"></rect><rect x="100" y="158.33333333333334" width="5" height="2" fill="black"></rect><rect x="100" y="166.66666666666669" width="5" height="2" fill="black"></rect><rect x="100" y="175" width="5" height="2" fill="black"></rect><rect x="100" y="183.33333333333334" width="5" height="2" fill="black"></rect><rect x="100" y="191.66666666666669" width="5" height="2" fill="black"></rect><rect x="100" y="200" width="5" height="2" fill="black"></rect><rect x="100" y="208.33333333333334" width="5" height="2" fill="black"></rect><rect x="100" y="216.66666666666669" width="5" height="2" fill="black"></rect><rect x="100" y="225" width="5" height="2" fill="black"></rect><rect x="100" y="233.33333333333334" width="5" height="2" fill="black"></rect><rect x="100" y="241.66666666666669" width="5" height="2" fill="black"></rect><text x="90" y="50" font-family="Arial" font-size="12" fill="black" text-anchor="end" dominant-baseline="middle">24</text><text x="90" y="58.333333333333336" font-family="Arial" font-size="12" fill="black" text-anchor="end" dominant-baseline="middle"></text><text x="90" y="66.66666666666667" font-family="Arial" font-size="12" fill="black" text-anchor="end" dominant-baseline="middle">22</text><text x="90" y="75" font-family="Arial" font-size="12" fill="black" text-anchor="end" dominant-baseline="middle"></text><text x="90" y="83.33333333333334" font-family="Arial" font-size="12" fill="black" text-anchor="end" dominant-baseline="middle">20</text><text x="90" y="91.66666666666667" font-family="Arial" font-size="12" fill="black" text-anchor="end" dominant-baseline="middle"></text><text x="90" y="100" font-family="Arial" font-size="12" fill="black" text-anchor="end" dominant-baseline="middle">18</text><text x="90" y="108.33333333333334" font-family="Arial" font-size="12" fill="black" text-anchor="end" dominant-baseline="middle"></text><text x="90" y="116.66666666666667" font-family="Arial" font-size="12" fill="black" text-anchor="end" dominant-baseline="middle">16</text><text x="90" y="125" font-family="Arial" font-size="12" fill="black" text-anchor="end" dominant-baseline="middle"></text><text x="90" y="133.33333333333334" font-family="Arial" font-size="12" fill="black" text-anchor="end" dominant-baseline="middle">14</text><text x="90" y="141.66666666666669" font-family="Arial" font-size="12" fill="black" text-anchor="end" dominant-baseline="middle"></text><text x="90" y="150" font-family="Arial" font-size="12" fill="black" text-anchor="end" dominant-baseline="middle">12</text><text x="90" y="158.33333333333334" font-family="Arial" font-size="12" fill="black" text-anchor="end" dominant-baseline="middle"></text><text x="90" y="166.66666666666669" font-family="Arial" font-size="12" fill="black" text-anchor="end" dominant-baseline="middle">10</text><text x="90" y="175" font-family="Arial" font-size="12" fill="black" text-anchor="end" dominant-baseline="middle"></text><text x="90" y="183.33333333333334" font-family="Arial" font-size="12" fill="black" text-anchor="end" dominant-baseline="middle">8</text><text x="90" y="191.66666666666669" font-family="Arial" font-size="12" fill="black" text-anchor="end" dominant-baseline="middle"></text><text x="90" y="200" font-family="Arial" font-size="12" fill="black" text-anchor="end" dominant-baseline="middle">6</text><text x="90" y="208.33333333333334" font-family="Arial" font-size="12" fill="black" text-anchor="end" dominant-baseline="middle"></text><text x="90" y="216.66666666666669" font-family="Arial" font-size="12" fill="black" text-anchor="end" dominant-baseline="middle">4</text><text x="90" y="225" font-family="Arial" font-size="12" fill="black" text-anchor="end" dominant-baseline="middle"></text><text x="90" y="233.33333333333334" font-family="Arial" font-size="12" fill="black" text-anchor="end" dominant-baseline="middle">2</text><text x="90" y="241.66666666666669" font-family="Arial" font-size="12" fill="black" text-anchor="end" dominant-baseline="middle"></text><text x="90" y="250" font-family="Arial" font-size="12" fill="black" text-anchor="end" dominant-baseline="middle">0</text><text x="100" y="260" font-family="Arial" fill="black" text-anchor="middle" dominant-baseline="hanging">Jul 16, '23</text><text x="333" y="260" font-family="Arial" fill="black" text-anchor="middle" dominant-baseline="hanging">17</text><text x="566" y="260" font-family="Arial" fill="black" text-anchor="middle" dominant-baseline="hanging">18</text><text x="799" y="260" font-family="Arial" fill="black" text-anchor="middle" dominant-baseline="hanging">19</text><text x="1032" y="260" font-family="Arial" fill="black" text-anchor="middle" dominant-baseline="hanging">20</text><text x="1265" y="260" font-family="Arial" fill="black" text-anchor="middle" dominant-baseline="hanging">21</text><text x="1498" y="260" font-family="Arial" fill="black" text-anchor="middle" dominant-baseline="hanging">22</text><rect x="100" y="50" width="2" height="200" fill="black"></rect><rect x="333" y="230" width="2" height="20" fill="black"></rect><rect x="566" y="230" width="2" height="20" fill="black"></rect><rect x="799" y="230" width="2" height="20" fill="black"></rect><rect x="1032" y="230" width="2" height="20" fill="black"></rect><rect x="1265" y="230" width="2" height="20" fill="black"></rect><rect x="1498" y="230" width="2" height="20" fill="black"></rect></svg>