<svg xmlns="http://www.w3.org/2000/svg" width="1600" height="300"><rect x="100" y="50" width="1400" height="200" fill="rgba(221, 239, 250, .3)"></rect><clipPath id="theGraph"><rect x="100" y="50" width="1400" height="200" fill="black"></rect></clipPath><rect x="100" y="280" width="15" height="15" fill="#51565E" stroke="black" stroke-width="0.25"></rect><text x="120" y="295" font-family="Arial" font-size="12" fill="black">Not started</text><rect x="220" y="280" width="15" height="15" fill="#FF6666" stroke="black" stroke-width="0.25"></rect><text x="240" y="295" font-family="Arial" font-size="12" fill="black">BLOCKED</text><rect x="340" y="280" width="15" height="15" fill="#41659E" stroke="black" stroke-width="0.25"></rect><text x="360" y="295" font-family="Arial" font-size="12" fill="black">Scheduled</text><rect x="460" y="280" width="15" height="15" fill="#519E41" stroke="black" stroke-width="0.25"></rect><text x="480" y="295" font-family="Arial" font-size="12" fill="black">In progress</text><path d="M 100 68.18181818181816 M 100 68.18181818181816 C 100 68.18181818181816 275 68.18181818181816 275 68.18181818181816 C 275 68.18181818181816 450 68.18181818181816 450 68.18181818181816 C 450 68.18181818181816 625 68.18181818181816 625 68.18181818181816 C 625 68.18181818181816 800 68.18181818181816 800 68.18181818181816 C 809.0909090909091 68.18181818181816 965.9090909090909 86.36363636363635 975 86.36363636363635 C 975 86.36363636363635 1150 86.36363636363635 1150 86.36363636363635 C 1150 86.36363636363635 1325 86.36363636363635 1325 86.36363636363635 C 1325 86.36363636363635 1500 86.36363636363635 1500 86.36363636363635 C 1500 86.36363636363635 1500 250 1500 250 C 1500 250 100 250 100 250 Z" fill="#519E41" stroke="black" stroke-width="0.25"></path><path d="M 100 68.18181818181816 M 100 68.18181818181816 C 109.0909090909091 68.18181818181816 265.9090909090909 86.36363636363635 275 86.36363636363635 C 284.0909090909091 86.36363636363635 440.9090909090909 104.54545454545453 450 104.54545454545453 C 459.0909090909091 104.54545454545453 615.9090909090909 122.72727272727272 625 122.72727272727272 C 634.0909090909091 122.72727272727272 790.9090909090909 140.9090909090909 800 140.9090909090909 C 809.0909090909091 140.9090909090909 965.9090909090909 159.09090909090907 975 159.09090909090907 C 975 159.09090909090907 1150 159.09090909090907 1150 159.09090909090907 C 1150 159.09090909090907 1325 159.09090909090907 1325 159.09090909090907 C 1325 159.09090909090907 1500 159.09090909090907 1500 159.09090909090907 C 1500 159.09090909090907 1500 250 1500 250 C 1500 250 100 250 100 250 Z" fill="#41659E" stroke="black" stroke-width="0.25"></path><path d="M 100 68.18181818181816 M 100 68.18181818181816 C 109.0909090909091 68.18181818181816 265.9090909090909 86.36363636363635 275 86.36363636363635 C 284.0909090909091 86.36363636363635 440.9090909090909 104.54545454545453 450 104.54545454545453 C 459.0909090909091 104.54545454545453 615.9090909090909 122.72727272727272 625 122.72727272727272 C 634.0909090909091 122.72727272727272 790.9090909090909 140.9090909090909 800 140.9090909090909 C 827.2727272727273 140.9090909090909 947.7272727272727 195.45454545454544 975 195.45454545454544 C 975 195.45454545454544 1150 195.45454545454544 1150 195.45454545454544 C 1150 195.45454545454544 1325 195.45454545454544 1325 195.45454545454544 C 1325 195.45454545454544 1500 195.45454545454544 1500 195.45454545454544 C 1500 195.45454545454544 1500 250 1500 250 C 1500 250 100 250 100 250 Z" fill="#FF6666" stroke="black" stroke-width="0.25"></path><path d="M 100 68.18181818181816 M 100 68.18181818181816 C 109.0909090909091 68.18181818181816 265.9090909090909 86.36363636363635 275 86.36363636363635 C 284.0909090909091 86.36363636363635 440.9090909090909 104.54545454545453 450 104.54545454545453 C 459.0909090909091 104.54545454545453 615.9090909090909 122.72727272727272 625 122.72727272727272 C 634.0909090909091 122.72727272727272 790.9090909090909 140.9090909090909 800 140.9090909090909 C 836.3636363636364 140.9090909090909 938.6363636363636 213.63636363636363 975 213.63636363636363 C 975 213.63636363636363 1150 213.63636363636363 1150 213.63636363636363 C 1150 213.63636363636363 1325 213.63636363636363 1325 213.63636363636363 C 1325 213.63636363636363 1500 213.63636363636363 1500 213.63636363636363 C 1500 213.63636363636363 1500 250 1500 250 C 1500 250 100 250 100 250 Z" fill="#51565E" stroke="black" stroke-width="0.25"></path><text x="800" y="70" font-family="Arial" font-size="16" fill="black" text-anchor="middle" alignment-baseline="middle">CHRIS TEST PROJECT</text><rect x="100" y="250" width="1400" height="2" fill="black"></rect><rect x="100" y="50" width="5" height="2" fill="black"></rect><rect x="100" y="68.18181818181819" width="5" height="2" fill="black"></rect><rect x="100" y="86.36363636363637" width="5" height="2" fill="black"></rect><rect x="100" y="104.54545454545455" width="5" height="2" fill="black"></rect><rect x="100" y="122.72727272727273" width="5" height="2" fill="black"></rect><rect x="100" y="140.90909090909093" width="5" height="2" fill="black"></rect><rect x="100" y="159.0909090909091" width="5" height="2" fill="black"></rect><rect x="100" y="177.27272727272728" width="5" height="2" fill="black"></rect><rect x="100" y="195.45454545454547" width="5" height="2" fill="black"></rect><rect x="100" y="213.63636363636365" width="5" height="2" fill="black"></rect><rect x="100" y="231.81818181818184" width="5" height="2" fill="black"></rect><text x="90" y="50" font-family="Arial" font-size="12" fill="black" text-anchor="end" dominant-baseline="middle">11</text><text x="90" y="68.18181818181819" font-family="Arial" font-size="12" fill="black" text-anchor="end" dominant-baseline="middle"></text><text x="90" y="86.36363636363637" font-family="Arial" font-size="12" fill="black" text-anchor="end" dominant-baseline="middle">9</text><text x="90" y="104.54545454545455" font-family="Arial" font-size="12" fill="black" text-anchor="end" dominant-baseline="middle"></text><text x="90" y="122.72727272727273" font-family="Arial" font-size="12" fill="black" text-anchor="end" dominant-baseline="middle">7</text><text x="90" y="140.90909090909093" font-family="Arial" font-size="12" fill="black" text-anchor="end" dominant-baseline="middle"></text><text x="90" y="159.0909090909091" font-family="Arial" font-size="12" fill="black" text-anchor="end" dominant-baseline="middle">5</text><text x="90" y="177.27272727272728" font-family="Arial" font-size="12" fill="black" text-anchor="end" dominant-baseline="middle"></text><text x="90" y="195.45454545454547" font-family="Arial" font-size="12" fill="black" text-anchor="end" dominant-baseline="middle">3</text><text x="90" y="213.63636363636365" font-family="Arial" font-size="12" fill="black" text-anchor="end" dominant-baseline="middle"></text><text x="90" y="231.81818181818184" font-family="Arial" font-size="12" fill="black" text-anchor="end" dominant-baseline="middle">1</text><text x="90" y="250.00000000000003" font-family="Arial" font-size="12" fill="black" text-anchor="end" dominant-baseline="middle"></text><text x="100" y="260" font-family="Arial" fill="black" text-anchor="middle" dominant-baseline="hanging">Jul 12, '23</text><text x="274.75" y="260" font-family="Arial" fill="black" text-anchor="middle" dominant-baseline="hanging">13</text><text x="449.5" y="260" font-family="Arial" fill="black" text-anchor="middle" dominant-baseline="hanging">14</text><text x="624.25" y="260" font-family="Arial" fill="black" text-anchor="middle" dominant-baseline="hanging">15</text><text x="799" y="260" font-family="Arial" fill="black" text-anchor="middle" dominant-baseline="hanging">16</text><text x="973.75" y="260" font-family="Arial" fill="black" text-anchor="middle" dominant-baseline="hanging">17</text><text x="1148.5" y="260" font-family="Arial" fill="black" text-anchor="middle" dominant-baseline="hanging">18</text><text x="1323.25" y="260" font-family="Arial" fill="black" text-anchor="middle" dominant-baseline="hanging">19</text><text x="1498" y="260" font-family="Arial" fill="black" text-anchor="middle" dominant-baseline="hanging">20</text><rect x="100" y="50" width="2" height="200" fill="black"></rect><rect x="274.75" y="230" width="2" height="20" fill="black"></rect><rect x="449.5" y="230" width="2" height="20" fill="black"></rect><rect x="624.25" y="230" width="2" height="20" fill="black"></rect><rect x="799" y="230" width="2" height="20" fill="black"></rect><rect x="973.75" y="230" width="2" height="20" fill="black"></rect><rect x="1148.5" y="230" width="2" height="20" fill="black"></rect><rect x="1323.25" y="230" width="2" height="20" fill="black"></rect><rect x="1498" y="230" width="2" height="20" fill="black"></rect></svg>