<svg xmlns="http://www.w3.org/2000/svg" width="1600" height="300"><rect x="100" y="50" width="1400" height="200" fill="rgba(221, 239, 250, .3)"></rect><clipPath id="theGraph"><rect x="100" y="50" width="1400" height="200" fill="black"></rect></clipPath><rect x="100" y="280" width="15" height="15" fill="#51565E" stroke="black" stroke-width="0.25"></rect><text x="120" y="295" font-family="Arial" font-size="12" fill="black">Not started</text><rect x="220" y="280" width="15" height="15" fill="#FF6666" stroke="black" stroke-width="0.25"></rect><text x="240" y="295" font-family="Arial" font-size="12" fill="black">BLOCKED</text><rect x="340" y="280" width="15" height="15" fill="#41659E" stroke="black" stroke-width="0.25"></rect><text x="360" y="295" font-family="Arial" font-size="12" fill="black">Scheduled</text><rect x="460" y="280" width="15" height="15" fill="#519E41" stroke="black" stroke-width="0.25"></rect><text x="480" y="295" font-family="Arial" font-size="12" fill="black">In progress</text><path d="M 100 68.18181818181816 M 100 68.18181818181816 C 100 68.18181818181816 255.55555567145345 68.18181818181816 255.55555567145345 68.18181818181816 C 255.55555567145345 68.18181818181816 411.1111113429069 68.18181818181816 411.1111113429069 68.18181818181816 C 411.1111113429069 68.18181818181816 566.6666664928197 68.18181818181816 566.6666664928197 68.18181818181816 C 566.6666664928197 68.18181818181816 722.2222221642731 68.18181818181816 722.2222221642731 68.18181818181816 C 731.3131312551823 68.18181818181816 868.6868687448175 86.36363636363635 877.7777778357266 86.36363636363635 C 877.7777778357266 86.36363636363635 1033.33333350718 86.36363636363635 1033.33333350718 86.36363636363635 C 1033.33333350718 86.36363636363635 1188.8888886570928 86.36363636363635 1188.8888886570928 86.36363636363635 C 1188.8888886570928 86.36363636363635 1344.4444443285463 86.36363636363635 1344.4444443285463 86.36363636363635 C 1344.4444443285463 86.36363636363635 1499.9999999999998 86.36363636363635 1499.9999999999998 86.36363636363635 C 1499.9999999999998 86.36363636363635 1499.9999999999998 250 1499.9999999999998 250 C 1499.9999999999998 250 100 250 100 250 Z" fill="#519E41" stroke="black" stroke-width="0.25"></path><path d="M 100 68.18181818181816 M 100 68.18181818181816 C 109.0909090909091 68.18181818181816 246.46464658054435 86.36363636363635 255.55555567145345 86.36363636363635 C 264.64646476236254 86.36363636363635 402.02020225199783 104.54545454545453 411.1111113429069 104.54545454545453 C 420.20202043381596 104.54545454545453 557.5757574019106 122.72727272727272 566.6666664928197 122.72727272727272 C 575.7575755837288 122.72727272727272 713.131313073364 140.9090909090909 722.2222221642731 140.9090909090909 C 731.3131312551823 140.9090909090909 868.6868687448175 159.09090909090907 877.7777778357266 159.09090909090907 C 877.7777778357266 159.09090909090907 1033.33333350718 159.09090909090907 1033.33333350718 159.09090909090907 C 1033.33333350718 159.09090909090907 1188.8888886570928 159.09090909090907 1188.8888886570928 159.09090909090907 C 1188.8888886570928 159.09090909090907 1344.4444443285463 159.09090909090907 1344.4444443285463 159.09090909090907 C 1344.4444443285463 159.09090909090907 1499.9999999999998 159.09090909090907 1499.9999999999998 159.09090909090907 C 1499.9999999999998 159.09090909090907 1499.9999999999998 250 1499.9999999999998 250 C 1499.9999999999998 250 100 250 100 250 Z" fill="#41659E" stroke="black" stroke-width="0.25"></path><path d="M 100 68.18181818181816 M 100 68.18181818181816 C 109.0909090909091 68.18181818181816 246.46464658054435 86.36363636363635 255.55555567145345 86.36363636363635 C 264.64646476236254 86.36363636363635 402.02020225199783 104.54545454545453 411.1111113429069 104.54545454545453 C 420.20202043381596 104.54545454545453 557.5757574019106 122.72727272727272 566.6666664928197 122.72727272727272 C 575.7575755837288 122.72727272727272 713.131313073364 140.9090909090909 722.2222221642731 140.9090909090909 C 749.4949494370004 140.9090909090909 850.5050505629994 195.45454545454544 877.7777778357266 195.45454545454544 C 877.7777778357266 195.45454545454544 1033.33333350718 195.45454545454544 1033.33333350718 195.45454545454544 C 1033.33333350718 195.45454545454544 1188.8888886570928 195.45454545454544 1188.8888886570928 195.45454545454544 C 1188.8888886570928 195.45454545454544 1344.4444443285463 195.45454545454544 1344.4444443285463 195.45454545454544 C 1344.4444443285463 195.45454545454544 1499.9999999999998 195.45454545454544 1499.9999999999998 195.45454545454544 C 1499.9999999999998 195.45454545454544 1499.9999999999998 250 1499.9999999999998 250 C 1499.9999999999998 250 100 250 100 250 Z" fill="#FF6666" stroke="black" stroke-width="0.25"></path><path d="M 100 68.18181818181816 M 100 68.18181818181816 C 109.0909090909091 68.18181818181816 246.46464658054435 86.36363636363635 255.55555567145345 86.36363636363635 C 264.64646476236254 86.36363636363635 402.02020225199783 104.54545454545453 411.1111113429069 104.54545454545453 C 420.20202043381596 104.54545454545453 557.5757574019106 122.72727272727272 566.6666664928197 122.72727272727272 C 575.7575755837288 122.72727272727272 713.131313073364 140.9090909090909 722.2222221642731 140.9090909090909 C 758.5858585279095 140.9090909090909 841.4141414720903 213.63636363636363 877.7777778357266 213.63636363636363 C 877.7777778357266 213.63636363636363 1033.33333350718 213.63636363636363 1033.33333350718 213.63636363636363 C 1033.33333350718 213.63636363636363 1188.8888886570928 213.63636363636363 1188.8888886570928 213.63636363636363 C 1188.8888886570928 213.63636363636363 1344.4444443285463 213.63636363636363 1344.4444443285463 213.63636363636363 C 1344.4444443285463 213.63636363636363 1499.9999999999998 213.63636363636363 1499.9999999999998 213.63636363636363 C 1499.9999999999998 213.63636363636363 1499.9999999999998 250 1499.9999999999998 250 C 1499.9999999999998 250 100 250 100 250 Z" fill="#51565E" stroke="black" stroke-width="0.25"></path><text x="800" y="70" font-family="Arial" font-size="16" fill="black" text-anchor="middle" alignment-baseline="middle">CHRIS TEST PROJECT</text><rect x="100" y="250" width="1400" height="2" fill="black"></rect><rect x="100" y="50" width="5" height="2" fill="black"></rect><rect x="100" y="68.18181818181819" width="5" height="2" fill="black"></rect><rect x="100" y="86.36363636363637" width="5" height="2" fill="black"></rect><rect x="100" y="104.54545454545455" width="5" height="2" fill="black"></rect><rect x="100" y="122.72727272727273" width="5" height="2" fill="black"></rect><rect x="100" y="140.90909090909093" width="5" height="2" fill="black"></rect><rect x="100" y="159.0909090909091" width="5" height="2" fill="black"></rect><rect x="100" y="177.27272727272728" width="5" height="2" fill="black"></rect><rect x="100" y="195.45454545454547" width="5" height="2" fill="black"></rect><rect x="100" y="213.63636363636365" width="5" height="2" fill="black"></rect><rect x="100" y="231.81818181818184" width="5" height="2" fill="black"></rect><text x="90" y="50" font-family="Arial" font-size="12" fill="black" text-anchor="end" dominant-baseline="middle">11</text><text x="90" y="68.18181818181819" font-family="Arial" font-size="12" fill="black" text-anchor="end" dominant-baseline="middle"></text><text x="90" y="86.36363636363637" font-family="Arial" font-size="12" fill="black" text-anchor="end" dominant-baseline="middle">9</text><text x="90" y="104.54545454545455" font-family="Arial" font-size="12" fill="black" text-anchor="end" dominant-baseline="middle"></text><text x="90" y="122.72727272727273" font-family="Arial" font-size="12" fill="black" text-anchor="end" dominant-baseline="middle">7</text><text x="90" y="140.90909090909093" font-family="Arial" font-size="12" fill="black" text-anchor="end" dominant-baseline="middle"></text><text x="90" y="159.0909090909091" font-family="Arial" font-size="12" fill="black" text-anchor="end" dominant-baseline="middle">5</text><text x="90" y="177.27272727272728" font-family="Arial" font-size="12" fill="black" text-anchor="end" dominant-baseline="middle"></text><text x="90" y="195.45454545454547" font-family="Arial" font-size="12" fill="black" text-anchor="end" dominant-baseline="middle">3</text><text x="90" y="213.63636363636365" font-family="Arial" font-size="12" fill="black" text-anchor="end" dominant-baseline="middle"></text><text x="90" y="231.81818181818184" font-family="Arial" font-size="12" fill="black" text-anchor="end" dominant-baseline="middle">1</text><text x="90" y="250.00000000000003" font-family="Arial" font-size="12" fill="black" text-anchor="end" dominant-baseline="middle"></text><text x="100" y="260" font-family="Arial" fill="black" text-anchor="middle" dominant-baseline="hanging">Jul 12, '23</text><text x="255.33333333333334" y="260" font-family="Arial" fill="black" text-anchor="middle" dominant-baseline="hanging">13</text><text x="410.6666666666667" y="260" font-family="Arial" fill="black" text-anchor="middle" dominant-baseline="hanging">14</text><text x="566" y="260" font-family="Arial" fill="black" text-anchor="middle" dominant-baseline="hanging">15</text><text x="721.3333333333334" y="260" font-family="Arial" fill="black" text-anchor="middle" dominant-baseline="hanging">16</text><text x="876.6666666666667" y="260" font-family="Arial" fill="black" text-anchor="middle" dominant-baseline="hanging">17</text><text x="1032" y="260" font-family="Arial" fill="black" text-anchor="middle" dominant-baseline="hanging">18</text><text x="1187.3333333333335" y="260" font-family="Arial" fill="black" text-anchor="middle" dominant-baseline="hanging">19</text><text x="1342.6666666666667" y="260" font-family="Arial" fill="black" text-anchor="middle" dominant-baseline="hanging">20</text><text x="1498" y="260" font-family="Arial" fill="black" text-anchor="middle" dominant-baseline="hanging">21</text><rect x="100" y="50" width="2" height="200" fill="black"></rect><rect x="255.33333333333334" y="230" width="2" height="20" fill="black"></rect><rect x="410.6666666666667" y="230" width="2" height="20" fill="black"></rect><rect x="566" y="230" width="2" height="20" fill="black"></rect><rect x="721.3333333333334" y="230" width="2" height="20" fill="black"></rect><rect x="876.6666666666667" y="230" width="2" height="20" fill="black"></rect><rect x="1032" y="230" width="2" height="20" fill="black"></rect><rect x="1187.3333333333335" y="230" width="2" height="20" fill="black"></rect><rect x="1342.6666666666667" y="230" width="2" height="20" fill="black"></rect><rect x="1498" y="230" width="2" height="20" fill="black"></rect></svg>