<svg xmlns="http://www.w3.org/2000/svg" width="1600" height="300"><rect x="100" y="50" width="1400" height="200" fill="rgba(221, 239, 250, .3)"></rect><clipPath id="theGraph"><rect x="100" y="50" width="1400" height="200" fill="black"></rect></clipPath><rect x="100" y="280" width="15" height="15" fill="#51565E" stroke="black" stroke-width="0.25"></rect><text x="120" y="295" font-family="Arial" font-size="12" fill="black">Not started</text><rect x="220" y="280" width="15" height="15" fill="#FF6666" stroke="black" stroke-width="0.25"></rect><text x="240" y="295" font-family="Arial" font-size="12" fill="black">BLOCKED</text><rect x="340" y="280" width="15" height="15" fill="#41659E" stroke="black" stroke-width="0.25"></rect><text x="360" y="295" font-family="Arial" font-size="12" fill="black">Scheduled</text><rect x="460" y="280" width="15" height="15" fill="#519E41" stroke="black" stroke-width="0.25"></rect><text x="480" y="295" font-family="Arial" font-size="12" fill="black">In progress</text><path d="M 100 68.18181818181816 M 100 68.18181818181816 C 100 68.18181818181816 300 68.18181818181816 300 68.18181818181816 C 300 68.18181818181816 500 68.18181818181816 500 68.18181818181816 C 500 68.18181818181816 700 68.18181818181816 700 68.18181818181816 C 700 68.18181818181816 900 68.18181818181816 900 68.18181818181816 C 909.0909090909091 68.18181818181816 1090.909090909091 86.36363636363635 1100 86.36363636363635 C 1100 86.36363636363635 1300 86.36363636363635 1300 86.36363636363635 C 1300 86.36363636363635 1500 86.36363636363635 1500 86.36363636363635 C 1500 86.36363636363635 1500 250 1500 250 C 1500 250 100 250 100 250 Z" fill="#519E41" stroke="black" stroke-width="0.25"></path><path d="M 100 68.18181818181816 M 100 68.18181818181816 C 109.0909090909091 68.18181818181816 290.9090909090909 86.36363636363635 300 86.36363636363635 C 309.0909090909091 86.36363636363635 490.9090909090909 104.54545454545453 500 104.54545454545453 C 509.0909090909091 104.54545454545453 690.9090909090909 122.72727272727272 700 122.72727272727272 C 709.0909090909091 122.72727272727272 890.9090909090909 140.9090909090909 900 140.9090909090909 C 909.0909090909091 140.9090909090909 1090.909090909091 159.09090909090907 1100 159.09090909090907 C 1100 159.09090909090907 1300 159.09090909090907 1300 159.09090909090907 C 1300 159.09090909090907 1500 159.09090909090907 1500 159.09090909090907 C 1500 159.09090909090907 1500 250 1500 250 C 1500 250 100 250 100 250 Z" fill="#41659E" stroke="black" stroke-width="0.25"></path><path d="M 100 68.18181818181816 M 100 68.18181818181816 C 109.0909090909091 68.18181818181816 290.9090909090909 86.36363636363635 300 86.36363636363635 C 309.0909090909091 86.36363636363635 490.9090909090909 104.54545454545453 500 104.54545454545453 C 509.0909090909091 104.54545454545453 690.9090909090909 122.72727272727272 700 122.72727272727272 C 709.0909090909091 122.72727272727272 890.9090909090909 140.9090909090909 900 140.9090909090909 C 927.2727272727273 140.9090909090909 1072.7272727272727 195.45454545454544 1100 195.45454545454544 C 1100 195.45454545454544 1300 195.45454545454544 1300 195.45454545454544 C 1300 195.45454545454544 1500 195.45454545454544 1500 195.45454545454544 C 1500 195.45454545454544 1500 250 1500 250 C 1500 250 100 250 100 250 Z" fill="#FF6666" stroke="black" stroke-width="0.25"></path><path d="M 100 68.18181818181816 M 100 68.18181818181816 C 109.0909090909091 68.18181818181816 290.9090909090909 86.36363636363635 300 86.36363636363635 C 309.0909090909091 86.36363636363635 490.9090909090909 104.54545454545453 500 104.54545454545453 C 509.0909090909091 104.54545454545453 690.9090909090909 122.72727272727272 700 122.72727272727272 C 709.0909090909091 122.72727272727272 890.9090909090909 140.9090909090909 900 140.9090909090909 C 936.3636363636364 140.9090909090909 1063.6363636363637 213.63636363636363 1100 213.63636363636363 C 1100 213.63636363636363 1300 213.63636363636363 1300 213.63636363636363 C 1300 213.63636363636363 1500 213.63636363636363 1500 213.63636363636363 C 1500 213.63636363636363 1500 250 1500 250 C 1500 250 100 250 100 250 Z" fill="#51565E" stroke="black" stroke-width="0.25"></path><text x="800" y="70" font-family="Arial" font-size="16" fill="black" text-anchor="middle" alignment-baseline="middle">CHRIS TEST PROJECT</text><rect x="100" y="250" width="1400" height="2" fill="black"></rect><rect x="100" y="50" width="5" height="2" fill="black"></rect><rect x="100" y="68.18181818181819" width="5" height="2" fill="black"></rect><rect x="100" y="86.36363636363637" width="5" height="2" fill="black"></rect><rect x="100" y="104.54545454545455" width="5" height="2" fill="black"></rect><rect x="100" y="122.72727272727273" width="5" height="2" fill="black"></rect><rect x="100" y="140.90909090909093" width="5" height="2" fill="black"></rect><rect x="100" y="159.0909090909091" width="5" height="2" fill="black"></rect><rect x="100" y="177.27272727272728" width="5" height="2" fill="black"></rect><rect x="100" y="195.45454545454547" width="5" height="2" fill="black"></rect><rect x="100" y="213.63636363636365" width="5" height="2" fill="black"></rect><rect x="100" y="231.81818181818184" width="5" height="2" fill="black"></rect><text x="90" y="50" font-family="Arial" font-size="12" fill="black" text-anchor="end" dominant-baseline="middle">11</text><text x="90" y="68.18181818181819" font-family="Arial" font-size="12" fill="black" text-anchor="end" dominant-baseline="middle"></text><text x="90" y="86.36363636363637" font-family="Arial" font-size="12" fill="black" text-anchor="end" dominant-baseline="middle">9</text><text x="90" y="104.54545454545455" font-family="Arial" font-size="12" fill="black" text-anchor="end" dominant-baseline="middle"></text><text x="90" y="122.72727272727273" font-family="Arial" font-size="12" fill="black" text-anchor="end" dominant-baseline="middle">7</text><text x="90" y="140.90909090909093" font-family="Arial" font-size="12" fill="black" text-anchor="end" dominant-baseline="middle"></text><text x="90" y="159.0909090909091" font-family="Arial" font-size="12" fill="black" text-anchor="end" dominant-baseline="middle">5</text><text x="90" y="177.27272727272728" font-family="Arial" font-size="12" fill="black" text-anchor="end" dominant-baseline="middle"></text><text x="90" y="195.45454545454547" font-family="Arial" font-size="12" fill="black" text-anchor="end" dominant-baseline="middle">3</text><text x="90" y="213.63636363636365" font-family="Arial" font-size="12" fill="black" text-anchor="end" dominant-baseline="middle"></text><text x="90" y="231.81818181818184" font-family="Arial" font-size="12" fill="black" text-anchor="end" dominant-baseline="middle">1</text><text x="90" y="250.00000000000003" font-family="Arial" font-size="12" fill="black" text-anchor="end" dominant-baseline="middle"></text><text x="100" y="260" font-family="Arial" fill="black" text-anchor="middle" dominant-baseline="hanging">Jul 12, '23</text><text x="299.7142857142857" y="260" font-family="Arial" fill="black" text-anchor="middle" dominant-baseline="hanging">13</text><text x="499.42857142857144" y="260" font-family="Arial" fill="black" text-anchor="middle" dominant-baseline="hanging">14</text><text x="699.1428571428571" y="260" font-family="Arial" fill="black" text-anchor="middle" dominant-baseline="hanging">15</text><text x="898.8571428571429" y="260" font-family="Arial" fill="black" text-anchor="middle" dominant-baseline="hanging">16</text><text x="1098.5714285714287" y="260" font-family="Arial" fill="black" text-anchor="middle" dominant-baseline="hanging">17</text><text x="1298.2857142857142" y="260" font-family="Arial" fill="black" text-anchor="middle" dominant-baseline="hanging">18</text><text x="1498" y="260" font-family="Arial" fill="black" text-anchor="middle" dominant-baseline="hanging">19</text><rect x="100" y="50" width="2" height="200" fill="black"></rect><rect x="299.7142857142857" y="230" width="2" height="20" fill="black"></rect><rect x="499.42857142857144" y="230" width="2" height="20" fill="black"></rect><rect x="699.1428571428571" y="230" width="2" height="20" fill="black"></rect><rect x="898.8571428571429" y="230" width="2" height="20" fill="black"></rect><rect x="1098.5714285714287" y="230" width="2" height="20" fill="black"></rect><rect x="1298.2857142857142" y="230" width="2" height="20" fill="black"></rect><rect x="1498" y="230" width="2" height="20" fill="black"></rect></svg>