<svg xmlns="http://www.w3.org/2000/svg" width="1600" height="300"><rect x="100" y="50" width="1400" height="200" fill="rgba(221, 239, 250, .3)"></rect><clipPath id="theGraph"><rect x="100" y="50" width="1400" height="200" fill="black"></rect></clipPath><rect x="100" y="280" width="15" height="15" fill="#51565E" stroke="black" stroke-width="0.25"></rect><text x="120" y="295" font-family="Arial" font-size="12" fill="black">Not started</text><rect x="220" y="280" width="15" height="15" fill="#FF6666" stroke="black" stroke-width="0.25"></rect><text x="240" y="295" font-family="Arial" font-size="12" fill="black">BLOCKED</text><rect x="340" y="280" width="15" height="15" fill="#41659E" stroke="black" stroke-width="0.25"></rect><text x="360" y="295" font-family="Arial" font-size="12" fill="black">Scheduled</text><rect x="460" y="280" width="15" height="15" fill="#519E41" stroke="black" stroke-width="0.25"></rect><text x="480" y="295" font-family="Arial" font-size="12" fill="black">In progress</text><path d="M 100 250 M 100 250 C 100 250 299.9999998137355 250 299.9999998137355 250 C 299.9999998137355 250 500.0000002793968 250 500.0000002793968 250 C 500.0000002793968 250 700.0000000931323 250 700.0000000931323 250 C 750.0000000931323 250 849.9999999068677 150 899.9999999068677 150 C 899.9999999068677 150 1099.9999997206032 150 1099.9999997206032 150 C 1099.9999997206032 150 1300.0000001862645 150 1300.0000001862645 150 C 1350.0000001862645 150 1450 250 1500 250 C 1500 250 1500 250 1500 250 C 1500 250 100 250 100 250 Z" fill="#519E41" stroke="black" stroke-width="0.25"></path><path d="M 100 250 M 100 250 C 100 250 299.9999998137355 250 299.9999998137355 250 C 299.9999998137355 250 500.0000002793968 250 500.0000002793968 250 C 500.0000002793968 250 700.0000000931323 250 700.0000000931323 250 C 750.0000000931323 250 849.9999999068677 150 899.9999999068677 150 C 899.9999999068677 150 1099.9999997206032 150 1099.9999997206032 150 C 1099.9999997206032 150 1300.0000001862645 150 1300.0000001862645 150 C 1350.0000001862645 150 1450 250 1500 250 C 1500 250 1500 250 1500 250 C 1500 250 100 250 100 250 Z" fill="#41659E" stroke="black" stroke-width="0.25"></path><path d="M 100 250 M 100 250 C 100 250 299.9999998137355 250 299.9999998137355 250 C 299.9999998137355 250 500.0000002793968 250 500.0000002793968 250 C 500.0000002793968 250 700.0000000931323 250 700.0000000931323 250 C 750.0000000931323 250 849.9999999068677 150 899.9999999068677 150 C 899.9999999068677 150 1099.9999997206032 150 1099.9999997206032 150 C 1099.9999997206032 150 1300.0000001862645 150 1300.0000001862645 150 C 1350.0000001862645 150 1450 250 1500 250 C 1500 250 1500 250 1500 250 C 1500 250 100 250 100 250 Z" fill="#FF6666" stroke="black" stroke-width="0.25"></path><path d="M 100 250 M 100 250 C 100 250 299.9999998137355 250 299.9999998137355 250 C 299.9999998137355 250 500.0000002793968 250 500.0000002793968 250 C 500.0000002793968 250 700.0000000931323 250 700.0000000931323 250 C 750.0000000931323 250 849.9999999068677 150 899.9999999068677 150 C 899.9999999068677 150 1099.9999997206032 150 1099.9999997206032 150 C 1099.9999997206032 150 1300.0000001862645 150 1300.0000001862645 150 C 1350.0000001862645 150 1450 250 1500 250 C 1500 250 1500 250 1500 250 C 1500 250 100 250 100 250 Z" fill="#51565E" stroke="black" stroke-width="0.25"></path><text x="800" y="70" font-family="Arial" font-size="16" fill="black" text-anchor="middle" alignment-baseline="middle">SCAN TYPE SPECIMENS: VERTEBRATE PALEONTOLOGY</text><rect x="100" y="250" width="1400" height="2" fill="black"></rect><rect x="100" y="50" width="5" height="2" fill="black"></rect><rect x="100" y="100" width="5" height="2" fill="black"></rect><rect x="100" y="150" width="5" height="2" fill="black"></rect><rect x="100" y="200" width="5" height="2" fill="black"></rect><text x="90" y="50" font-family="Arial" font-size="12" fill="black" text-anchor="end" dominant-baseline="middle">4</text><text x="90" y="100" font-family="Arial" font-size="12" fill="black" text-anchor="end" dominant-baseline="middle">3</text><text x="90" y="150" font-family="Arial" font-size="12" fill="black" text-anchor="end" dominant-baseline="middle">2</text><text x="90" y="200" font-family="Arial" font-size="12" fill="black" text-anchor="end" dominant-baseline="middle">1</text><text x="90" y="250" font-family="Arial" font-size="12" fill="black" text-anchor="end" dominant-baseline="middle">0</text><text x="100" y="260" font-family="Arial" fill="black" text-anchor="middle" dominant-baseline="hanging">Jul 16, '23</text><text x="299.7142857142857" y="260" font-family="Arial" fill="black" text-anchor="middle" dominant-baseline="hanging">17</text><text x="499.42857142857144" y="260" font-family="Arial" fill="black" text-anchor="middle" dominant-baseline="hanging">18</text><text x="699.1428571428571" y="260" font-family="Arial" fill="black" text-anchor="middle" dominant-baseline="hanging">19</text><text x="898.8571428571429" y="260" font-family="Arial" fill="black" text-anchor="middle" dominant-baseline="hanging">20</text><text x="1098.5714285714287" y="260" font-family="Arial" fill="black" text-anchor="middle" dominant-baseline="hanging">21</text><text x="1298.2857142857142" y="260" font-family="Arial" fill="black" text-anchor="middle" dominant-baseline="hanging">22</text><text x="1498" y="260" font-family="Arial" fill="black" text-anchor="middle" dominant-baseline="hanging">23</text><rect x="100" y="50" width="2" height="200" fill="black"></rect><rect x="299.7142857142857" y="230" width="2" height="20" fill="black"></rect><rect x="499.42857142857144" y="230" width="2" height="20" fill="black"></rect><rect x="699.1428571428571" y="230" width="2" height="20" fill="black"></rect><rect x="898.8571428571429" y="230" width="2" height="20" fill="black"></rect><rect x="1098.5714285714287" y="230" width="2" height="20" fill="black"></rect><rect x="1298.2857142857142" y="230" width="2" height="20" fill="black"></rect><rect x="1498" y="230" width="2" height="20" fill="black"></rect></svg>