<svg xmlns="http://www.w3.org/2000/svg" width="1600" height="300"><rect x="100" y="50" width="1400" height="200" fill="rgba(221, 239, 250, .3)"></rect><clipPath id="theGraph"><rect x="100" y="50" width="1400" height="200" fill="black"></rect></clipPath><rect x="100" y="280" width="15" height="15" fill="#51565E" stroke="black" stroke-width="0.25"></rect><text x="120" y="295" font-family="Arial" font-size="12" fill="black">Not started</text><rect x="220" y="280" width="15" height="15" fill="#FF6666" stroke="black" stroke-width="0.25"></rect><text x="240" y="295" font-family="Arial" font-size="12" fill="black">BLOCKED</text><rect x="340" y="280" width="15" height="15" fill="#41659E" stroke="black" stroke-width="0.25"></rect><text x="360" y="295" font-family="Arial" font-size="12" fill="black">Scheduled</text><rect x="460" y="280" width="15" height="15" fill="#519E41" stroke="black" stroke-width="0.25"></rect><text x="480" y="295" font-family="Arial" font-size="12" fill="black">In progress</text><path d="M 100 68.18181818181816 M 100 68.18181818181816 C 100 68.18181818181816 240.00000018965113 68.18181818181816 240.00000018965113 68.18181818181816 C 240.00000018965113 68.18181818181816 379.99999990517443 68.18181818181816 379.99999990517443 68.18181818181816 C 379.99999990517443 68.18181818181816 520.0000000948255 68.18181818181816 520.0000000948255 68.18181818181816 C 520.0000000948255 68.18181818181816 659.9999998103489 68.18181818181816 659.9999998103489 68.18181818181816 C 669.090908901258 68.18181818181816 790.9090909090909 86.36363636363635 800 86.36363636363635 C 800 86.36363636363635 940.0000001896511 86.36363636363635 940.0000001896511 86.36363636363635 C 940.0000001896511 86.36363636363635 1079.9999999051743 86.36363636363635 1079.9999999051743 86.36363636363635 C 1079.9999999051743 86.36363636363635 1220.0000000948255 86.36363636363635 1220.0000000948255 86.36363636363635 C 1289.9999999525871 86.36363636363635 1289.9999999525871 250 1359.9999998103488 250 C 1414.5454543558033 250 1445.4545454545455 140.9090909090909 1500 140.9090909090909 C 1500 140.9090909090909 1500 250 1500 250 C 1500 250 100 250 100 250 Z" fill="#519E41" stroke="black" stroke-width="0.25"></path><path d="M 100 68.18181818181816 M 100 68.18181818181816 C 109.0909090909091 68.18181818181816 230.90909109874204 86.36363636363635 240.00000018965113 86.36363636363635 C 249.09090928056023 86.36363636363635 370.90909081426537 104.54545454545453 379.99999990517443 104.54545454545453 C 389.0909089960835 104.54545454545453 510.9090910039164 122.72727272727272 520.0000000948255 122.72727272727272 C 529.0909091857346 122.72727272727272 650.9090907194397 140.9090909090909 659.9999998103489 140.9090909090909 C 669.090908901258 140.9090909090909 790.9090909090909 159.09090909090907 800 159.09090909090907 C 800 159.09090909090907 940.0000001896511 159.09090909090907 940.0000001896511 159.09090909090907 C 940.0000001896511 159.09090909090907 1079.9999999051743 159.09090909090907 1079.9999999051743 159.09090909090907 C 1079.9999999051743 159.09090909090907 1220.0000000948255 159.09090909090907 1220.0000000948255 159.09090909090907 C 1265.454545549371 159.09090909090907 1314.5454543558033 250 1359.9999998103488 250 C 1396.363636173985 250 1463.6363636363635 177.27272727272725 1500 177.27272727272725 C 1500 177.27272727272725 1500 250 1500 250 C 1500 250 100 250 100 250 Z" fill="#41659E" stroke="black" stroke-width="0.25"></path><path d="M 100 68.18181818181816 M 100 68.18181818181816 C 109.0909090909091 68.18181818181816 230.90909109874204 86.36363636363635 240.00000018965113 86.36363636363635 C 249.09090928056023 86.36363636363635 370.90909081426537 104.54545454545453 379.99999990517443 104.54545454545453 C 389.0909089960835 104.54545454545453 510.9090910039164 122.72727272727272 520.0000000948255 122.72727272727272 C 529.0909091857346 122.72727272727272 650.9090907194397 140.9090909090909 659.9999998103489 140.9090909090909 C 687.2727270830761 140.9090909090909 772.7272727272727 195.45454545454544 800 195.45454545454544 C 800 195.45454545454544 940.0000001896511 195.45454545454544 940.0000001896511 195.45454545454544 C 940.0000001896511 195.45454545454544 1079.9999999051743 195.45454545454544 1079.9999999051743 195.45454545454544 C 1079.9999999051743 195.45454545454544 1220.0000000948255 195.45454545454544 1220.0000000948255 195.45454545454544 C 1247.2727273675528 195.45454545454544 1332.7272725376215 250 1359.9999998103488 250 C 1378.181817992167 250 1481.8181818181818 213.63636363636363 1500 213.63636363636363 C 1500 213.63636363636363 1500 250 1500 250 C 1500 250 100 250 100 250 Z" fill="#FF6666" stroke="black" stroke-width="0.25"></path><path d="M 100 68.18181818181816 M 100 68.18181818181816 C 109.0909090909091 68.18181818181816 230.90909109874204 86.36363636363635 240.00000018965113 86.36363636363635 C 249.09090928056023 86.36363636363635 370.90909081426537 104.54545454545453 379.99999990517443 104.54545454545453 C 389.0909089960835 104.54545454545453 510.9090910039164 122.72727272727272 520.0000000948255 122.72727272727272 C 529.0909091857346 122.72727272727272 650.9090907194397 140.9090909090909 659.9999998103489 140.9090909090909 C 696.3636361739852 140.9090909090909 763.6363636363636 213.63636363636363 800 213.63636363636363 C 800 213.63636363636363 940.0000001896511 213.63636363636363 940.0000001896511 213.63636363636363 C 940.0000001896511 213.63636363636363 1079.9999999051743 213.63636363636363 1079.9999999051743 213.63636363636363 C 1079.9999999051743 213.63636363636363 1220.0000000948255 213.63636363636363 1220.0000000948255 213.63636363636363 C 1238.1818182766438 213.63636363636363 1341.8181816285305 250 1359.9999998103488 250 C 1369.0909089012578 250 1490.909090909091 231.8181818181818 1500 231.8181818181818 C 1500 231.8181818181818 1500 250 1500 250 C 1500 250 100 250 100 250 Z" fill="#51565E" stroke="black" stroke-width="0.25"></path><text x="800" y="70" font-family="Arial" font-size="16" fill="black" text-anchor="middle" alignment-baseline="middle">CHRIS TEST PROJECT</text><rect x="100" y="250" width="1400" height="2" fill="black"></rect><rect x="100" y="50" width="5" height="2" fill="black"></rect><rect x="100" y="68.18181818181819" width="5" height="2" fill="black"></rect><rect x="100" y="86.36363636363637" width="5" height="2" fill="black"></rect><rect x="100" y="104.54545454545455" width="5" height="2" fill="black"></rect><rect x="100" y="122.72727272727273" width="5" height="2" fill="black"></rect><rect x="100" y="140.90909090909093" width="5" height="2" fill="black"></rect><rect x="100" y="159.0909090909091" width="5" height="2" fill="black"></rect><rect x="100" y="177.27272727272728" width="5" height="2" fill="black"></rect><rect x="100" y="195.45454545454547" width="5" height="2" fill="black"></rect><rect x="100" y="213.63636363636365" width="5" height="2" fill="black"></rect><rect x="100" y="231.81818181818184" width="5" height="2" fill="black"></rect><text x="90" y="50" font-family="Arial" font-size="12" fill="black" text-anchor="end" dominant-baseline="middle">11</text><text x="90" y="68.18181818181819" font-family="Arial" font-size="12" fill="black" text-anchor="end" dominant-baseline="middle"></text><text x="90" y="86.36363636363637" font-family="Arial" font-size="12" fill="black" text-anchor="end" dominant-baseline="middle">9</text><text x="90" y="104.54545454545455" font-family="Arial" font-size="12" fill="black" text-anchor="end" dominant-baseline="middle"></text><text x="90" y="122.72727272727273" font-family="Arial" font-size="12" fill="black" text-anchor="end" dominant-baseline="middle">7</text><text x="90" y="140.90909090909093" font-family="Arial" font-size="12" fill="black" text-anchor="end" dominant-baseline="middle"></text><text x="90" y="159.0909090909091" font-family="Arial" font-size="12" fill="black" text-anchor="end" dominant-baseline="middle">5</text><text x="90" y="177.27272727272728" font-family="Arial" font-size="12" fill="black" text-anchor="end" dominant-baseline="middle"></text><text x="90" y="195.45454545454547" font-family="Arial" font-size="12" fill="black" text-anchor="end" dominant-baseline="middle">3</text><text x="90" y="213.63636363636365" font-family="Arial" font-size="12" fill="black" text-anchor="end" dominant-baseline="middle"></text><text x="90" y="231.81818181818184" font-family="Arial" font-size="12" fill="black" text-anchor="end" dominant-baseline="middle">1</text><text x="90" y="250.00000000000003" font-family="Arial" font-size="12" fill="black" text-anchor="end" dominant-baseline="middle"></text><text x="100" y="260" font-family="Arial" fill="black" text-anchor="middle" dominant-baseline="hanging">Jul 12, '23</text><text x="239.8" y="260" font-family="Arial" fill="black" text-anchor="middle" dominant-baseline="hanging">13</text><text x="379.6" y="260" font-family="Arial" fill="black" text-anchor="middle" dominant-baseline="hanging">14</text><text x="519.4000000000001" y="260" font-family="Arial" fill="black" text-anchor="middle" dominant-baseline="hanging">15</text><text x="659.2" y="260" font-family="Arial" fill="black" text-anchor="middle" dominant-baseline="hanging">16</text><text x="799" y="260" font-family="Arial" fill="black" text-anchor="middle" dominant-baseline="hanging">17</text><text x="938.8000000000001" y="260" font-family="Arial" fill="black" text-anchor="middle" dominant-baseline="hanging">18</text><text x="1078.6000000000001" y="260" font-family="Arial" fill="black" text-anchor="middle" dominant-baseline="hanging">19</text><text x="1218.4" y="260" font-family="Arial" fill="black" text-anchor="middle" dominant-baseline="hanging">20</text><text x="1358.2" y="260" font-family="Arial" fill="black" text-anchor="middle" dominant-baseline="hanging">21</text><text x="1498" y="260" font-family="Arial" fill="black" text-anchor="middle" dominant-baseline="hanging">22</text><rect x="100" y="50" width="2" height="200" fill="black"></rect><rect x="239.8" y="230" width="2" height="20" fill="black"></rect><rect x="379.6" y="230" width="2" height="20" fill="black"></rect><rect x="519.4000000000001" y="230" width="2" height="20" fill="black"></rect><rect x="659.2" y="230" width="2" height="20" fill="black"></rect><rect x="799" y="230" width="2" height="20" fill="black"></rect><rect x="938.8000000000001" y="230" width="2" height="20" fill="black"></rect><rect x="1078.6000000000001" y="230" width="2" height="20" fill="black"></rect><rect x="1218.4" y="230" width="2" height="20" fill="black"></rect><rect x="1358.2" y="230" width="2" height="20" fill="black"></rect><rect x="1498" y="230" width="2" height="20" fill="black"></rect></svg>