<svg xmlns="http://www.w3.org/2000/svg" width="1600" height="300"><rect x="100" y="50" width="1400" height="200" fill="rgba(221, 239, 250, .3)"></rect><clipPath id="theGraph"><rect x="100" y="50" width="1400" height="200" fill="black"></rect></clipPath><rect x="100" y="280" width="15" height="15" fill="#51565E" stroke="black" stroke-width="0.25"></rect><text x="120" y="295" font-family="Arial" font-size="12" fill="black">Not started</text><rect x="220" y="280" width="15" height="15" fill="#FF6666" stroke="black" stroke-width="0.25"></rect><text x="240" y="295" font-family="Arial" font-size="12" fill="black">BLOCKED</text><rect x="340" y="280" width="15" height="15" fill="#41659E" stroke="black" stroke-width="0.25"></rect><text x="360" y="295" font-family="Arial" font-size="12" fill="black">Scheduled</text><rect x="460" y="280" width="15" height="15" fill="#519E41" stroke="black" stroke-width="0.25"></rect><text x="480" y="295" font-family="Arial" font-size="12" fill="black">In progress</text><path d="M 100 126.92307692307692 M 100 126.92307692307692 C 100 126.92307692307692 800 126.92307692307692 800 126.92307692307692 C 800 126.92307692307692 1500 126.92307692307692 1500 126.92307692307692 C 1500 126.92307692307692 1500 250 1500 250 C 1500 250 100 250 100 250 Z" fill="#519E41" stroke="black" stroke-width="0.25"></path><path d="M 100 134.6153846153846 M 100 134.6153846153846 C 100 134.6153846153846 800 134.6153846153846 800 134.6153846153846 C 800 134.6153846153846 1500 134.6153846153846 1500 134.6153846153846 C 1500 134.6153846153846 1500 250 1500 250 C 1500 250 100 250 100 250 Z" fill="#41659E" stroke="black" stroke-width="0.25"></path><path d="M 100 134.6153846153846 M 100 134.6153846153846 C 100 134.6153846153846 800 134.6153846153846 800 134.6153846153846 C 800 134.6153846153846 1500 134.6153846153846 1500 134.6153846153846 C 1500 134.6153846153846 1500 250 1500 250 C 1500 250 100 250 100 250 Z" fill="#FF6666" stroke="black" stroke-width="0.25"></path><path d="M 100 134.6153846153846 M 100 134.6153846153846 C 100 134.6153846153846 800 134.6153846153846 800 134.6153846153846 C 800 134.6153846153846 1500 134.6153846153846 1500 134.6153846153846 C 1500 134.6153846153846 1500 250 1500 250 C 1500 250 100 250 100 250 Z" fill="#51565E" stroke="black" stroke-width="0.25"></path><text x="800" y="70" font-family="Arial" font-size="16" fill="black" text-anchor="middle" alignment-baseline="middle">TERENTIA - MARKETING</text><rect x="100" y="250" width="1400" height="2" fill="black"></rect><rect x="100" y="50" width="5" height="2" fill="black"></rect><rect x="100" y="57.69230769230769" width="5" height="2" fill="black"></rect><rect x="100" y="65.38461538461539" width="5" height="2" fill="black"></rect><rect x="100" y="73.07692307692308" width="5" height="2" fill="black"></rect><rect x="100" y="80.76923076923077" width="5" height="2" fill="black"></rect><rect x="100" y="88.46153846153845" width="5" height="2" fill="black"></rect><rect x="100" y="96.15384615384616" width="5" height="2" fill="black"></rect><rect x="100" y="103.84615384615384" width="5" height="2" fill="black"></rect><rect x="100" y="111.53846153846155" width="5" height="2" fill="black"></rect><rect x="100" y="119.23076923076923" width="5" height="2" fill="black"></rect><rect x="100" y="126.92307692307692" width="5" height="2" fill="black"></rect><rect x="100" y="134.6153846153846" width="5" height="2" fill="black"></rect><rect x="100" y="142.30769230769232" width="5" height="2" fill="black"></rect><rect x="100" y="150" width="5" height="2" fill="black"></rect><rect x="100" y="157.69230769230768" width="5" height="2" fill="black"></rect><rect x="100" y="165.3846153846154" width="5" height="2" fill="black"></rect><rect x="100" y="173.0769230769231" width="5" height="2" fill="black"></rect><rect x="100" y="180.76923076923077" width="5" height="2" fill="black"></rect><rect x="100" y="188.46153846153845" width="5" height="2" fill="black"></rect><rect x="100" y="196.15384615384616" width="5" height="2" fill="black"></rect><rect x="100" y="203.84615384615384" width="5" height="2" fill="black"></rect><rect x="100" y="211.53846153846155" width="5" height="2" fill="black"></rect><rect x="100" y="219.23076923076923" width="5" height="2" fill="black"></rect><rect x="100" y="226.92307692307693" width="5" height="2" fill="black"></rect><rect x="100" y="234.6153846153846" width="5" height="2" fill="black"></rect><rect x="100" y="242.30769230769232" width="5" height="2" fill="black"></rect><text x="90" y="50" font-family="Arial" font-size="12" fill="black" text-anchor="end" dominant-baseline="middle">26</text><text x="90" y="57.69230769230769" font-family="Arial" font-size="12" fill="black" text-anchor="end" dominant-baseline="middle"></text><text x="90" y="65.38461538461539" font-family="Arial" font-size="12" fill="black" text-anchor="end" dominant-baseline="middle">24</text><text x="90" y="73.07692307692308" font-family="Arial" font-size="12" fill="black" text-anchor="end" dominant-baseline="middle"></text><text x="90" y="80.76923076923077" font-family="Arial" font-size="12" fill="black" text-anchor="end" dominant-baseline="middle">22</text><text x="90" y="88.46153846153845" font-family="Arial" font-size="12" fill="black" text-anchor="end" dominant-baseline="middle"></text><text x="90" y="96.15384615384616" font-family="Arial" font-size="12" fill="black" text-anchor="end" dominant-baseline="middle">20</text><text x="90" y="103.84615384615384" font-family="Arial" font-size="12" fill="black" text-anchor="end" dominant-baseline="middle"></text><text x="90" y="111.53846153846155" font-family="Arial" font-size="12" fill="black" text-anchor="end" dominant-baseline="middle">18</text><text x="90" y="119.23076923076923" font-family="Arial" font-size="12" fill="black" text-anchor="end" dominant-baseline="middle"></text><text x="90" y="126.92307692307692" font-family="Arial" font-size="12" fill="black" text-anchor="end" dominant-baseline="middle">16</text><text x="90" y="134.6153846153846" font-family="Arial" font-size="12" fill="black" text-anchor="end" dominant-baseline="middle"></text><text x="90" y="142.30769230769232" font-family="Arial" font-size="12" fill="black" text-anchor="end" dominant-baseline="middle">14</text><text x="90" y="150" font-family="Arial" font-size="12" fill="black" text-anchor="end" dominant-baseline="middle"></text><text x="90" y="157.69230769230768" font-family="Arial" font-size="12" fill="black" text-anchor="end" dominant-baseline="middle">12</text><text x="90" y="165.3846153846154" font-family="Arial" font-size="12" fill="black" text-anchor="end" dominant-baseline="middle"></text><text x="90" y="173.0769230769231" font-family="Arial" font-size="12" fill="black" text-anchor="end" dominant-baseline="middle">10</text><text x="90" y="180.76923076923077" font-family="Arial" font-size="12" fill="black" text-anchor="end" dominant-baseline="middle"></text><text x="90" y="188.46153846153845" font-family="Arial" font-size="12" fill="black" text-anchor="end" dominant-baseline="middle">8</text><text x="90" y="196.15384615384616" font-family="Arial" font-size="12" fill="black" text-anchor="end" dominant-baseline="middle"></text><text x="90" y="203.84615384615384" font-family="Arial" font-size="12" fill="black" text-anchor="end" dominant-baseline="middle">6</text><text x="90" y="211.53846153846155" font-family="Arial" font-size="12" fill="black" text-anchor="end" dominant-baseline="middle"></text><text x="90" y="219.23076923076923" font-family="Arial" font-size="12" fill="black" text-anchor="end" dominant-baseline="middle">4</text><text x="90" y="226.92307692307693" font-family="Arial" font-size="12" fill="black" text-anchor="end" dominant-baseline="middle"></text><text x="90" y="234.6153846153846" font-family="Arial" font-size="12" fill="black" text-anchor="end" dominant-baseline="middle">2</text><text x="90" y="242.30769230769232" font-family="Arial" font-size="12" fill="black" text-anchor="end" dominant-baseline="middle"></text><text x="90" y="250" font-family="Arial" font-size="12" fill="black" text-anchor="end" dominant-baseline="middle">0</text><text x="100" y="260" font-family="Arial" fill="black" text-anchor="middle" dominant-baseline="hanging">Jul 16, '23</text><text x="799" y="260" font-family="Arial" fill="black" text-anchor="middle" dominant-baseline="hanging">17</text><text x="1498" y="260" font-family="Arial" fill="black" text-anchor="middle" dominant-baseline="hanging">18</text><rect x="100" y="50" width="2" height="200" fill="black"></rect><rect x="799" y="230" width="2" height="20" fill="black"></rect><rect x="1498" y="230" width="2" height="20" fill="black"></rect></svg>