<svg xmlns="http://www.w3.org/2000/svg" width="1600" height="300"><rect x="100" y="50" width="1400" height="200" fill="rgba(221, 239, 250, .3)"></rect><clipPath id="theGraph"><rect x="100" y="50" width="1400" height="200" fill="black"></rect></clipPath><rect x="100" y="280" width="15" height="15" fill="#51565E" stroke="black" stroke-width="0.25"></rect><text x="120" y="295" font-family="Arial" font-size="12" fill="black">Not started</text><rect x="220" y="280" width="15" height="15" fill="#FF6666" stroke="black" stroke-width="0.25"></rect><text x="240" y="295" font-family="Arial" font-size="12" fill="black">BLOCKED</text><rect x="340" y="280" width="15" height="15" fill="#41659E" stroke="black" stroke-width="0.25"></rect><text x="360" y="295" font-family="Arial" font-size="12" fill="black">Scheduled</text><rect x="460" y="280" width="15" height="15" fill="#519E41" stroke="black" stroke-width="0.25"></rect><text x="480" y="295" font-family="Arial" font-size="12" fill="black">In progress</text><path d="M 100 116.66666666666669 M 100 116.66666666666669 C 100 116.66666666666669 1500 116.66666666666669 1500 116.66666666666669 C 1500 116.66666666666669 1500 250 1500 250 C 1500 250 100 250 100 250 Z" fill="#519E41" stroke="black" stroke-width="0.25"></path><path d="M 100 161.11111111111111 M 100 161.11111111111111 C 100 161.11111111111111 1500 161.11111111111111 1500 161.11111111111111 C 1500 161.11111111111111 1500 250 1500 250 C 1500 250 100 250 100 250 Z" fill="#41659E" stroke="black" stroke-width="0.25"></path><path d="M 100 183.33333333333334 M 100 183.33333333333334 C 100 183.33333333333334 1500 183.33333333333334 1500 183.33333333333334 C 1500 183.33333333333334 1500 250 1500 250 C 1500 250 100 250 100 250 Z" fill="#FF6666" stroke="black" stroke-width="0.25"></path><path d="M 100 183.33333333333334 M 100 183.33333333333334 C 100 183.33333333333334 1500 183.33333333333334 1500 183.33333333333334 C 1500 183.33333333333334 1500 250 1500 250 C 1500 250 100 250 100 250 Z" fill="#51565E" stroke="black" stroke-width="0.25"></path><text x="800" y="70" font-family="Arial" font-size="16" fill="black" text-anchor="middle" alignment-baseline="middle">KIRTLANDIA RESEARCH INTERNSHIP: JILLIAN SCHWAB</text><rect x="100" y="250" width="1400" height="2" fill="black"></rect><rect x="100" y="50" width="5" height="2" fill="black"></rect><rect x="100" y="72.22222222222223" width="5" height="2" fill="black"></rect><rect x="100" y="94.44444444444444" width="5" height="2" fill="black"></rect><rect x="100" y="116.66666666666666" width="5" height="2" fill="black"></rect><rect x="100" y="138.88888888888889" width="5" height="2" fill="black"></rect><rect x="100" y="161.11111111111111" width="5" height="2" fill="black"></rect><rect x="100" y="183.33333333333331" width="5" height="2" fill="black"></rect><rect x="100" y="205.55555555555554" width="5" height="2" fill="black"></rect><rect x="100" y="227.77777777777777" width="5" height="2" fill="black"></rect><text x="90" y="50" font-family="Arial" font-size="12" fill="black" text-anchor="end" dominant-baseline="middle">9</text><text x="90" y="72.22222222222223" font-family="Arial" font-size="12" fill="black" text-anchor="end" dominant-baseline="middle">8</text><text x="90" y="94.44444444444444" font-family="Arial" font-size="12" fill="black" text-anchor="end" dominant-baseline="middle">7</text><text x="90" y="116.66666666666666" font-family="Arial" font-size="12" fill="black" text-anchor="end" dominant-baseline="middle">6</text><text x="90" y="138.88888888888889" font-family="Arial" font-size="12" fill="black" text-anchor="end" dominant-baseline="middle">5</text><text x="90" y="161.11111111111111" font-family="Arial" font-size="12" fill="black" text-anchor="end" dominant-baseline="middle">4</text><text x="90" y="183.33333333333331" font-family="Arial" font-size="12" fill="black" text-anchor="end" dominant-baseline="middle">3</text><text x="90" y="205.55555555555554" font-family="Arial" font-size="12" fill="black" text-anchor="end" dominant-baseline="middle">2</text><text x="90" y="227.77777777777777" font-family="Arial" font-size="12" fill="black" text-anchor="end" dominant-baseline="middle">1</text><text x="90" y="250" font-family="Arial" font-size="12" fill="black" text-anchor="end" dominant-baseline="middle">0</text><text x="100" y="260" font-family="Arial" fill="black" text-anchor="middle" dominant-baseline="hanging">Jul 25, '23</text><text x="1498" y="260" font-family="Arial" fill="black" text-anchor="middle" dominant-baseline="hanging">26</text><rect x="100" y="50" width="2" height="200" fill="black"></rect><rect x="1498" y="230" width="2" height="20" fill="black"></rect></svg>