<svg xmlns="http://www.w3.org/2000/svg" width="1600" height="300"><rect x="100" y="50" width="1400" height="200" fill="rgba(221, 239, 250, .3)"></rect><clipPath id="theGraph"><rect x="100" y="50" width="1400" height="200" fill="black"></rect></clipPath><rect x="100" y="280" width="15" height="15" fill="#51565E" stroke="black" stroke-width="0.25"></rect><text x="120" y="295" font-family="Arial" font-size="12" fill="black">Not started</text><rect x="220" y="280" width="15" height="15" fill="#FF6666" stroke="black" stroke-width="0.25"></rect><text x="240" y="295" font-family="Arial" font-size="12" fill="black">BLOCKED</text><rect x="340" y="280" width="15" height="15" fill="#41659E" stroke="black" stroke-width="0.25"></rect><text x="360" y="295" font-family="Arial" font-size="12" fill="black">Scheduled</text><rect x="460" y="280" width="15" height="15" fill="#519E41" stroke="black" stroke-width="0.25"></rect><text x="480" y="295" font-family="Arial" font-size="12" fill="black">In progress</text><path d="M 100 76.66666666666666 M 100 76.66666666666666 C 100 76.66666666666666 379.99999982615316 76.66666666666666 379.99999982615316 76.66666666666666 C 379.99999982615316 76.66666666666666 659.9999996523063 76.66666666666666 659.9999996523063 76.66666666666666 C 659.9999996523063 76.66666666666666 940.0000003476938 76.66666666666666 940.0000003476938 76.66666666666666 C 940.0000003476938 76.66666666666666 1220.000000173847 76.66666666666666 1220.000000173847 76.66666666666666 C 1220.000000173847 76.66666666666666 1500 76.66666666666666 1500 76.66666666666666 C 1500 76.66666666666666 1500 250 1500 250 C 1500 250 100 250 100 250 Z" fill="#519E41" stroke="black" stroke-width="0.25"></path><path d="M 100 90 M 100 90 C 100 90 379.99999982615316 90 379.99999982615316 90 C 379.99999982615316 90 659.9999996523063 90 659.9999996523063 90 C 659.9999996523063 90 940.0000003476938 90 940.0000003476938 90 C 940.0000003476938 90 1220.000000173847 90 1220.000000173847 90 C 1220.000000173847 90 1500 90 1500 90 C 1500 90 1500 250 1500 250 C 1500 250 100 250 100 250 Z" fill="#41659E" stroke="black" stroke-width="0.25"></path><path d="M 100 90 M 100 90 C 100 90 379.99999982615316 90 379.99999982615316 90 C 379.99999982615316 90 659.9999996523063 90 659.9999996523063 90 C 659.9999996523063 90 940.0000003476938 90 940.0000003476938 90 C 940.0000003476938 90 1220.000000173847 90 1220.000000173847 90 C 1220.000000173847 90 1500 90 1500 90 C 1500 90 1500 250 1500 250 C 1500 250 100 250 100 250 Z" fill="#FF6666" stroke="black" stroke-width="0.25"></path><path d="M 100 90 M 100 90 C 100 90 379.99999982615316 90 379.99999982615316 90 C 379.99999982615316 90 659.9999996523063 90 659.9999996523063 90 C 659.9999996523063 90 940.0000003476938 90 940.0000003476938 90 C 940.0000003476938 90 1220.000000173847 90 1220.000000173847 90 C 1220.000000173847 90 1500 90 1500 90 C 1500 90 1500 250 1500 250 C 1500 250 100 250 100 250 Z" fill="#51565E" stroke="black" stroke-width="0.25"></path><text x="800" y="70" font-family="Arial" font-size="16" fill="black" text-anchor="middle" alignment-baseline="middle">HTH 1750 SKELETON SCANNING</text><rect x="100" y="250" width="1400" height="2" fill="black"></rect><rect x="100" y="50" width="5" height="2" fill="black"></rect><rect x="100" y="63.333333333333336" width="5" height="2" fill="black"></rect><rect x="100" y="76.66666666666667" width="5" height="2" fill="black"></rect><rect x="100" y="90" width="5" height="2" fill="black"></rect><rect x="100" y="103.33333333333334" width="5" height="2" fill="black"></rect><rect x="100" y="116.66666666666667" width="5" height="2" fill="black"></rect><rect x="100" y="130" width="5" height="2" fill="black"></rect><rect x="100" y="143.33333333333334" width="5" height="2" fill="black"></rect><rect x="100" y="156.66666666666669" width="5" height="2" fill="black"></rect><rect x="100" y="170" width="5" height="2" fill="black"></rect><rect x="100" y="183.33333333333334" width="5" height="2" fill="black"></rect><rect x="100" y="196.66666666666669" width="5" height="2" fill="black"></rect><rect x="100" y="210" width="5" height="2" fill="black"></rect><rect x="100" y="223.33333333333334" width="5" height="2" fill="black"></rect><rect x="100" y="236.66666666666669" width="5" height="2" fill="black"></rect><text x="90" y="50" font-family="Arial" font-size="12" fill="black" text-anchor="end" dominant-baseline="middle">15</text><text x="90" y="63.333333333333336" font-family="Arial" font-size="12" fill="black" text-anchor="end" dominant-baseline="middle"></text><text x="90" y="76.66666666666667" font-family="Arial" font-size="12" fill="black" text-anchor="end" dominant-baseline="middle">13</text><text x="90" y="90" font-family="Arial" font-size="12" fill="black" text-anchor="end" dominant-baseline="middle"></text><text x="90" y="103.33333333333334" font-family="Arial" font-size="12" fill="black" text-anchor="end" dominant-baseline="middle">11</text><text x="90" y="116.66666666666667" font-family="Arial" font-size="12" fill="black" text-anchor="end" dominant-baseline="middle"></text><text x="90" y="130" font-family="Arial" font-size="12" fill="black" text-anchor="end" dominant-baseline="middle">9</text><text x="90" y="143.33333333333334" font-family="Arial" font-size="12" fill="black" text-anchor="end" dominant-baseline="middle"></text><text x="90" y="156.66666666666669" font-family="Arial" font-size="12" fill="black" text-anchor="end" dominant-baseline="middle">7</text><text x="90" y="170" font-family="Arial" font-size="12" fill="black" text-anchor="end" dominant-baseline="middle"></text><text x="90" y="183.33333333333334" font-family="Arial" font-size="12" fill="black" text-anchor="end" dominant-baseline="middle">5</text><text x="90" y="196.66666666666669" font-family="Arial" font-size="12" fill="black" text-anchor="end" dominant-baseline="middle"></text><text x="90" y="210" font-family="Arial" font-size="12" fill="black" text-anchor="end" dominant-baseline="middle">3</text><text x="90" y="223.33333333333334" font-family="Arial" font-size="12" fill="black" text-anchor="end" dominant-baseline="middle"></text><text x="90" y="236.66666666666669" font-family="Arial" font-size="12" fill="black" text-anchor="end" dominant-baseline="middle">1</text><text x="90" y="250" font-family="Arial" font-size="12" fill="black" text-anchor="end" dominant-baseline="middle"></text><text x="100" y="260" font-family="Arial" fill="black" text-anchor="middle" dominant-baseline="hanging">Jul 16, '23</text><text x="379.6" y="260" font-family="Arial" fill="black" text-anchor="middle" dominant-baseline="hanging">17</text><text x="659.2" y="260" font-family="Arial" fill="black" text-anchor="middle" dominant-baseline="hanging">18</text><text x="938.8000000000001" y="260" font-family="Arial" fill="black" text-anchor="middle" dominant-baseline="hanging">19</text><text x="1218.4" y="260" font-family="Arial" fill="black" text-anchor="middle" dominant-baseline="hanging">20</text><text x="1498" y="260" font-family="Arial" fill="black" text-anchor="middle" dominant-baseline="hanging">21</text><rect x="100" y="50" width="2" height="200" fill="black"></rect><rect x="379.6" y="230" width="2" height="20" fill="black"></rect><rect x="659.2" y="230" width="2" height="20" fill="black"></rect><rect x="938.8000000000001" y="230" width="2" height="20" fill="black"></rect><rect x="1218.4" y="230" width="2" height="20" fill="black"></rect><rect x="1498" y="230" width="2" height="20" fill="black"></rect></svg>