<svg xmlns="http://www.w3.org/2000/svg" width="1600" height="300"><rect x="100" y="50" width="1400" height="200" fill="rgba(221, 239, 250, .3)"></rect><clipPath id="theGraph"><rect x="100" y="50" width="1400" height="200" fill="black"></rect></clipPath><rect x="100" y="280" width="15" height="15" fill="#51565E" stroke="black" stroke-width="0.25"></rect><text x="120" y="295" font-family="Arial" font-size="12" fill="black">Not started</text><rect x="220" y="280" width="15" height="15" fill="#FF6666" stroke="black" stroke-width="0.25"></rect><text x="240" y="295" font-family="Arial" font-size="12" fill="black">BLOCKED</text><rect x="340" y="280" width="15" height="15" fill="#41659E" stroke="black" stroke-width="0.25"></rect><text x="360" y="295" font-family="Arial" font-size="12" fill="black">Scheduled</text><rect x="460" y="280" width="15" height="15" fill="#519E41" stroke="black" stroke-width="0.25"></rect><text x="480" y="295" font-family="Arial" font-size="12" fill="black">In progress</text><path d="M 100 84.48275862068965 M 100 84.48275862068965 C 100 84.48275862068965 1500 84.48275862068965 1500 84.48275862068965 C 1500 84.48275862068965 1500 250 1500 250 C 1500 250 100 250 100 250 Z" fill="#519E41" stroke="black" stroke-width="0.25"></path><path d="M 100 112.0689655172414 M 100 112.0689655172414 C 100 112.0689655172414 1500 112.0689655172414 1500 112.0689655172414 C 1500 112.0689655172414 1500 250 1500 250 C 1500 250 100 250 100 250 Z" fill="#41659E" stroke="black" stroke-width="0.25"></path><path d="M 100 208.6206896551724 M 100 208.6206896551724 C 100 208.6206896551724 1500 208.6206896551724 1500 208.6206896551724 C 1500 208.6206896551724 1500 250 1500 250 C 1500 250 100 250 100 250 Z" fill="#FF6666" stroke="black" stroke-width="0.25"></path><path d="M 100 229.31034482758622 M 100 229.31034482758622 C 100 229.31034482758622 1500 229.31034482758622 1500 229.31034482758622 C 1500 229.31034482758622 1500 250 1500 250 C 1500 250 100 250 100 250 Z" fill="#51565E" stroke="black" stroke-width="0.25"></path><text x="800" y="70" font-family="Arial" font-size="16" fill="black" text-anchor="middle" alignment-baseline="middle">PHASE 1 - PLANNING</text><rect x="100" y="250" width="1400" height="2" fill="black"></rect><rect x="100" y="50" width="5" height="2" fill="black"></rect><rect x="100" y="56.89655172413793" width="5" height="2" fill="black"></rect><rect x="100" y="63.79310344827586" width="5" height="2" fill="black"></rect><rect x="100" y="70.6896551724138" width="5" height="2" fill="black"></rect><rect x="100" y="77.58620689655172" width="5" height="2" fill="black"></rect><rect x="100" y="84.48275862068965" width="5" height="2" fill="black"></rect><rect x="100" y="91.37931034482759" width="5" height="2" fill="black"></rect><rect x="100" y="98.27586206896552" width="5" height="2" fill="black"></rect><rect x="100" y="105.17241379310344" width="5" height="2" fill="black"></rect><rect x="100" y="112.06896551724137" width="5" height="2" fill="black"></rect><rect x="100" y="118.9655172413793" width="5" height="2" fill="black"></rect><rect x="100" y="125.86206896551724" width="5" height="2" fill="black"></rect><rect x="100" y="132.75862068965517" width="5" height="2" fill="black"></rect><rect x="100" y="139.65517241379308" width="5" height="2" fill="black"></rect><rect x="100" y="146.55172413793105" width="5" height="2" fill="black"></rect><rect x="100" y="153.44827586206895" width="5" height="2" fill="black"></rect><rect x="100" y="160.3448275862069" width="5" height="2" fill="black"></rect><rect x="100" y="167.24137931034483" width="5" height="2" fill="black"></rect><rect x="100" y="174.13793103448273" width="5" height="2" fill="black"></rect><rect x="100" y="181.03448275862067" width="5" height="2" fill="black"></rect><rect x="100" y="187.9310344827586" width="5" height="2" fill="black"></rect><rect x="100" y="194.82758620689654" width="5" height="2" fill="black"></rect><rect x="100" y="201.72413793103448" width="5" height="2" fill="black"></rect><rect x="100" y="208.6206896551724" width="5" height="2" fill="black"></rect><rect x="100" y="215.51724137931035" width="5" height="2" fill="black"></rect><rect x="100" y="222.41379310344826" width="5" height="2" fill="black"></rect><rect x="100" y="229.3103448275862" width="5" height="2" fill="black"></rect><rect x="100" y="236.20689655172413" width="5" height="2" fill="black"></rect><rect x="100" y="243.10344827586206" width="5" height="2" fill="black"></rect><text x="90" y="50" font-family="Arial" font-size="12" fill="black" text-anchor="end" dominant-baseline="middle">29</text><text x="90" y="56.89655172413793" font-family="Arial" font-size="12" fill="black" text-anchor="end" dominant-baseline="middle"></text><text x="90" y="63.79310344827586" font-family="Arial" font-size="12" fill="black" text-anchor="end" dominant-baseline="middle"></text><text x="90" y="70.6896551724138" font-family="Arial" font-size="12" fill="black" text-anchor="end" dominant-baseline="middle"></text><text x="90" y="77.58620689655172" font-family="Arial" font-size="12" fill="black" text-anchor="end" dominant-baseline="middle"></text><text x="90" y="84.48275862068965" font-family="Arial" font-size="12" fill="black" text-anchor="end" dominant-baseline="middle"></text><text x="90" y="91.37931034482759" font-family="Arial" font-size="12" fill="black" text-anchor="end" dominant-baseline="middle"></text><text x="90" y="98.27586206896552" font-family="Arial" font-size="12" fill="black" text-anchor="end" dominant-baseline="middle"></text><text x="90" y="105.17241379310344" font-family="Arial" font-size="12" fill="black" text-anchor="end" dominant-baseline="middle"></text><text x="90" y="112.06896551724137" font-family="Arial" font-size="12" fill="black" text-anchor="end" dominant-baseline="middle"></text><text x="90" y="118.9655172413793" font-family="Arial" font-size="12" fill="black" text-anchor="end" dominant-baseline="middle"></text><text x="90" y="125.86206896551724" font-family="Arial" font-size="12" fill="black" text-anchor="end" dominant-baseline="middle"></text><text x="90" y="132.75862068965517" font-family="Arial" font-size="12" fill="black" text-anchor="end" dominant-baseline="middle"></text><text x="90" y="139.65517241379308" font-family="Arial" font-size="12" fill="black" text-anchor="end" dominant-baseline="middle"></text><text x="90" y="146.55172413793105" font-family="Arial" font-size="12" fill="black" text-anchor="end" dominant-baseline="middle"></text><text x="90" y="153.44827586206895" font-family="Arial" font-size="12" fill="black" text-anchor="end" dominant-baseline="middle"></text><text x="90" y="160.3448275862069" font-family="Arial" font-size="12" fill="black" text-anchor="end" dominant-baseline="middle"></text><text x="90" y="167.24137931034483" font-family="Arial" font-size="12" fill="black" text-anchor="end" dominant-baseline="middle"></text><text x="90" y="174.13793103448273" font-family="Arial" font-size="12" fill="black" text-anchor="end" dominant-baseline="middle"></text><text x="90" y="181.03448275862067" font-family="Arial" font-size="12" fill="black" text-anchor="end" dominant-baseline="middle"></text><text x="90" y="187.9310344827586" font-family="Arial" font-size="12" fill="black" text-anchor="end" dominant-baseline="middle"></text><text x="90" y="194.82758620689654" font-family="Arial" font-size="12" fill="black" text-anchor="end" dominant-baseline="middle"></text><text x="90" y="201.72413793103448" font-family="Arial" font-size="12" fill="black" text-anchor="end" dominant-baseline="middle"></text><text x="90" y="208.6206896551724" font-family="Arial" font-size="12" fill="black" text-anchor="end" dominant-baseline="middle"></text><text x="90" y="215.51724137931035" font-family="Arial" font-size="12" fill="black" text-anchor="end" dominant-baseline="middle"></text><text x="90" y="222.41379310344826" font-family="Arial" font-size="12" fill="black" text-anchor="end" dominant-baseline="middle"></text><text x="90" y="229.3103448275862" font-family="Arial" font-size="12" fill="black" text-anchor="end" dominant-baseline="middle"></text><text x="90" y="236.20689655172413" font-family="Arial" font-size="12" fill="black" text-anchor="end" dominant-baseline="middle"></text><text x="90" y="243.10344827586206" font-family="Arial" font-size="12" fill="black" text-anchor="end" dominant-baseline="middle"></text><text x="90" y="250" font-family="Arial" font-size="12" fill="black" text-anchor="end" dominant-baseline="middle"></text><text x="100" y="260" font-family="Arial" fill="black" text-anchor="middle" dominant-baseline="hanging">Jul 25, '23</text><text x="1498" y="260" font-family="Arial" fill="black" text-anchor="middle" dominant-baseline="hanging">26</text><rect x="100" y="50" width="2" height="200" fill="black"></rect><rect x="1498" y="230" width="2" height="20" fill="black"></rect></svg>