<svg xmlns="http://www.w3.org/2000/svg" width="1600" height="300"><rect x="100" y="50" width="1400" height="200" fill="rgba(221, 239, 250, .3)"></rect><clipPath id="theGraph"><rect x="100" y="50" width="1400" height="200" fill="black"></rect></clipPath><rect x="100" y="280" width="15" height="15" fill="#51565E" stroke="black" stroke-width="0.25"></rect><text x="120" y="295" font-family="Arial" font-size="12" fill="black">Not started</text><rect x="220" y="280" width="15" height="15" fill="#FF6666" stroke="black" stroke-width="0.25"></rect><text x="240" y="295" font-family="Arial" font-size="12" fill="black">BLOCKED</text><rect x="340" y="280" width="15" height="15" fill="#41659E" stroke="black" stroke-width="0.25"></rect><text x="360" y="295" font-family="Arial" font-size="12" fill="black">Scheduled</text><rect x="460" y="280" width="15" height="15" fill="#519E41" stroke="black" stroke-width="0.25"></rect><text x="480" y="295" font-family="Arial" font-size="12" fill="black">In progress</text><path d="M 100 232.6086956521739 M 100 232.6086956521739 C 100 232.6086956521739 566.6666662320495 232.6086956521739 566.6666662320495 232.6086956521739 C 566.6666662320495 232.6086956521739 1033.3333337679505 232.6086956521739 1033.3333337679505 232.6086956521739 C 1120.289855507081 232.6086956521739 1413.0434782608697 58.69565217391306 1500.0000000000002 58.69565217391306 C 1500.0000000000002 58.69565217391306 1500.0000000000002 250 1500.0000000000002 250 C 1500.0000000000002 250 100 250 100 250 Z" fill="#519E41" stroke="black" stroke-width="0.25"></path><path d="M 100 232.6086956521739 M 100 232.6086956521739 C 100 232.6086956521739 566.6666662320495 232.6086956521739 566.6666662320495 232.6086956521739 C 566.6666662320495 232.6086956521739 1033.3333337679505 232.6086956521739 1033.3333337679505 232.6086956521739 C 1120.289855507081 232.6086956521739 1413.0434782608697 58.69565217391306 1500.0000000000002 58.69565217391306 C 1500.0000000000002 58.69565217391306 1500.0000000000002 250 1500.0000000000002 250 C 1500.0000000000002 250 100 250 100 250 Z" fill="#41659E" stroke="black" stroke-width="0.25"></path><path d="M 100 232.6086956521739 M 100 232.6086956521739 C 100 232.6086956521739 566.6666662320495 232.6086956521739 566.6666662320495 232.6086956521739 C 566.6666662320495 232.6086956521739 1033.3333337679505 232.6086956521739 1033.3333337679505 232.6086956521739 C 1120.289855507081 232.6086956521739 1413.0434782608697 58.69565217391306 1500.0000000000002 58.69565217391306 C 1500.0000000000002 58.69565217391306 1500.0000000000002 250 1500.0000000000002 250 C 1500.0000000000002 250 100 250 100 250 Z" fill="#FF6666" stroke="black" stroke-width="0.25"></path><path d="M 100 232.6086956521739 M 100 232.6086956521739 C 100 232.6086956521739 566.6666662320495 232.6086956521739 566.6666662320495 232.6086956521739 C 566.6666662320495 232.6086956521739 1033.3333337679505 232.6086956521739 1033.3333337679505 232.6086956521739 C 1120.289855507081 232.6086956521739 1413.0434782608697 58.69565217391306 1500.0000000000002 58.69565217391306 C 1500.0000000000002 58.69565217391306 1500.0000000000002 250 1500.0000000000002 250 C 1500.0000000000002 250 100 250 100 250 Z" fill="#51565E" stroke="black" stroke-width="0.25"></path><text x="800" y="70" font-family="Arial" font-size="16" fill="black" text-anchor="middle" alignment-baseline="middle">SCAN TYPE SPECIMENS: VERTEBRATE PALEONTOLOGY</text><rect x="100" y="250" width="1400" height="2" fill="black"></rect><rect x="100" y="50" width="5" height="2" fill="black"></rect><rect x="100" y="58.69565217391305" width="5" height="2" fill="black"></rect><rect x="100" y="67.3913043478261" width="5" height="2" fill="black"></rect><rect x="100" y="76.08695652173913" width="5" height="2" fill="black"></rect><rect x="100" y="84.78260869565217" width="5" height="2" fill="black"></rect><rect x="100" y="93.47826086956522" width="5" height="2" fill="black"></rect><rect x="100" y="102.17391304347825" width="5" height="2" fill="black"></rect><rect x="100" y="110.8695652173913" width="5" height="2" fill="black"></rect><rect x="100" y="119.56521739130434" width="5" height="2" fill="black"></rect><rect x="100" y="128.26086956521738" width="5" height="2" fill="black"></rect><rect x="100" y="136.95652173913044" width="5" height="2" fill="black"></rect><rect x="100" y="145.65217391304347" width="5" height="2" fill="black"></rect><rect x="100" y="154.3478260869565" width="5" height="2" fill="black"></rect><rect x="100" y="163.04347826086956" width="5" height="2" fill="black"></rect><rect x="100" y="171.7391304347826" width="5" height="2" fill="black"></rect><rect x="100" y="180.43478260869566" width="5" height="2" fill="black"></rect><rect x="100" y="189.1304347826087" width="5" height="2" fill="black"></rect><rect x="100" y="197.82608695652172" width="5" height="2" fill="black"></rect><rect x="100" y="206.52173913043478" width="5" height="2" fill="black"></rect><rect x="100" y="215.2173913043478" width="5" height="2" fill="black"></rect><rect x="100" y="223.91304347826087" width="5" height="2" fill="black"></rect><rect x="100" y="232.6086956521739" width="5" height="2" fill="black"></rect><rect x="100" y="241.30434782608694" width="5" height="2" fill="black"></rect><text x="90" y="50" font-family="Arial" font-size="12" fill="black" text-anchor="end" dominant-baseline="middle">23</text><text x="90" y="58.69565217391305" font-family="Arial" font-size="12" fill="black" text-anchor="end" dominant-baseline="middle"></text><text x="90" y="67.3913043478261" font-family="Arial" font-size="12" fill="black" text-anchor="end" dominant-baseline="middle">21</text><text x="90" y="76.08695652173913" font-family="Arial" font-size="12" fill="black" text-anchor="end" dominant-baseline="middle"></text><text x="90" y="84.78260869565217" font-family="Arial" font-size="12" fill="black" text-anchor="end" dominant-baseline="middle">19</text><text x="90" y="93.47826086956522" font-family="Arial" font-size="12" fill="black" text-anchor="end" dominant-baseline="middle"></text><text x="90" y="102.17391304347825" font-family="Arial" font-size="12" fill="black" text-anchor="end" dominant-baseline="middle">17</text><text x="90" y="110.8695652173913" font-family="Arial" font-size="12" fill="black" text-anchor="end" dominant-baseline="middle"></text><text x="90" y="119.56521739130434" font-family="Arial" font-size="12" fill="black" text-anchor="end" dominant-baseline="middle">15</text><text x="90" y="128.26086956521738" font-family="Arial" font-size="12" fill="black" text-anchor="end" dominant-baseline="middle"></text><text x="90" y="136.95652173913044" font-family="Arial" font-size="12" fill="black" text-anchor="end" dominant-baseline="middle">13</text><text x="90" y="145.65217391304347" font-family="Arial" font-size="12" fill="black" text-anchor="end" dominant-baseline="middle"></text><text x="90" y="154.3478260869565" font-family="Arial" font-size="12" fill="black" text-anchor="end" dominant-baseline="middle">11</text><text x="90" y="163.04347826086956" font-family="Arial" font-size="12" fill="black" text-anchor="end" dominant-baseline="middle"></text><text x="90" y="171.7391304347826" font-family="Arial" font-size="12" fill="black" text-anchor="end" dominant-baseline="middle">9</text><text x="90" y="180.43478260869566" font-family="Arial" font-size="12" fill="black" text-anchor="end" dominant-baseline="middle"></text><text x="90" y="189.1304347826087" font-family="Arial" font-size="12" fill="black" text-anchor="end" dominant-baseline="middle">7</text><text x="90" y="197.82608695652172" font-family="Arial" font-size="12" fill="black" text-anchor="end" dominant-baseline="middle"></text><text x="90" y="206.52173913043478" font-family="Arial" font-size="12" fill="black" text-anchor="end" dominant-baseline="middle">5</text><text x="90" y="215.2173913043478" font-family="Arial" font-size="12" fill="black" text-anchor="end" dominant-baseline="middle"></text><text x="90" y="223.91304347826087" font-family="Arial" font-size="12" fill="black" text-anchor="end" dominant-baseline="middle">3</text><text x="90" y="232.6086956521739" font-family="Arial" font-size="12" fill="black" text-anchor="end" dominant-baseline="middle"></text><text x="90" y="241.30434782608694" font-family="Arial" font-size="12" fill="black" text-anchor="end" dominant-baseline="middle">1</text><text x="90" y="250" font-family="Arial" font-size="12" fill="black" text-anchor="end" dominant-baseline="middle"></text><text x="100" y="260" font-family="Arial" fill="black" text-anchor="middle" dominant-baseline="hanging">Jul 20, '23</text><text x="566" y="260" font-family="Arial" fill="black" text-anchor="middle" dominant-baseline="hanging">21</text><text x="1032" y="260" font-family="Arial" fill="black" text-anchor="middle" dominant-baseline="hanging">22</text><text x="1498" y="260" font-family="Arial" fill="black" text-anchor="middle" dominant-baseline="hanging">23</text><rect x="100" y="50" width="2" height="200" fill="black"></rect><rect x="566" y="230" width="2" height="20" fill="black"></rect><rect x="1032" y="230" width="2" height="20" fill="black"></rect><rect x="1498" y="230" width="2" height="20" fill="black"></rect></svg>