<svg xmlns="http://www.w3.org/2000/svg" width="1600" height="300"><rect x="100" y="20" width="1400" height="200" fill="rgba(221, 239, 250, .3)"></rect><clipPath id="theGraph"><rect x="100" y="20" width="1400" height="200" fill="black"></rect></clipPath><rect x="100" y="250" width="15" height="15" fill="#51565E" stroke="black" stroke-width="0.25"></rect><text x="120" y="265" font-family="Arial" font-size="12" fill="black">Not started</text><rect x="220" y="250" width="15" height="15" fill="#FF6666" stroke="black" stroke-width="0.25"></rect><text x="240" y="265" font-family="Arial" font-size="12" fill="black">BLOCKED</text><rect x="340" y="250" width="15" height="15" fill="#41659E" stroke="black" stroke-width="0.25"></rect><text x="360" y="265" font-family="Arial" font-size="12" fill="black">Scheduled</text><rect x="460" y="250" width="15" height="15" fill="#519E41" stroke="black" stroke-width="0.25"></rect><text x="480" y="265" font-family="Arial" font-size="12" fill="black">In progress</text><path d="M 100 54.48275862068965 M 100 54.48275862068965 C 100 54.48275862068965 800 54.48275862068965 800 54.48275862068965 C 800 54.48275862068965 1500 54.48275862068965 1500 54.48275862068965 C 1500 54.48275862068965 1500 220 1500 220 C 1500 220 100 220 100 220 Z" fill="#519E41" stroke="black" stroke-width="0.25"></path><path d="M 100 82.0689655172414 M 100 82.0689655172414 C 100 82.0689655172414 800 82.0689655172414 800 82.0689655172414 C 800 82.0689655172414 1500 82.0689655172414 1500 82.0689655172414 C 1500 82.0689655172414 1500 220 1500 220 C 1500 220 100 220 100 220 Z" fill="#41659E" stroke="black" stroke-width="0.25"></path><path d="M 100 178.6206896551724 M 100 178.6206896551724 C 100 178.6206896551724 800 178.6206896551724 800 178.6206896551724 C 800 178.6206896551724 1500 178.6206896551724 1500 178.6206896551724 C 1500 178.6206896551724 1500 220 1500 220 C 1500 220 100 220 100 220 Z" fill="#FF6666" stroke="black" stroke-width="0.25"></path><path d="M 100 199.31034482758622 M 100 199.31034482758622 C 100 199.31034482758622 800 199.31034482758622 800 199.31034482758622 C 800 199.31034482758622 1500 199.31034482758622 1500 199.31034482758622 C 1500 199.31034482758622 1500 220 1500 220 C 1500 220 100 220 100 220 Z" fill="#51565E" stroke="black" stroke-width="0.25"></path><text x="800" y="40" font-family="Arial" font-size="16" fill="black" text-anchor="middle" alignment-baseline="middle">PHASE 1 - PLANNING</text><rect x="100" y="220" width="1400" height="2" fill="black"></rect><rect x="100" y="20" width="5" height="2" fill="black"></rect><rect x="100" y="26.89655172413793" width="5" height="2" fill="black"></rect><rect x="100" y="33.79310344827586" width="5" height="2" fill="black"></rect><rect x="100" y="40.689655172413794" width="5" height="2" fill="black"></rect><rect x="100" y="47.58620689655172" width="5" height="2" fill="black"></rect><rect x="100" y="54.48275862068965" width="5" height="2" fill="black"></rect><rect x="100" y="61.37931034482759" width="5" height="2" fill="black"></rect><rect x="100" y="68.27586206896552" width="5" height="2" fill="black"></rect><rect x="100" y="75.17241379310344" width="5" height="2" fill="black"></rect><rect x="100" y="82.06896551724137" width="5" height="2" fill="black"></rect><rect x="100" y="88.9655172413793" width="5" height="2" fill="black"></rect><rect x="100" y="95.86206896551724" width="5" height="2" fill="black"></rect><rect x="100" y="102.75862068965517" width="5" height="2" fill="black"></rect><rect x="100" y="109.6551724137931" width="5" height="2" fill="black"></rect><rect x="100" y="116.55172413793103" width="5" height="2" fill="black"></rect><rect x="100" y="123.44827586206895" width="5" height="2" fill="black"></rect><rect x="100" y="130.3448275862069" width="5" height="2" fill="black"></rect><rect x="100" y="137.24137931034483" width="5" height="2" fill="black"></rect><rect x="100" y="144.13793103448273" width="5" height="2" fill="black"></rect><rect x="100" y="151.03448275862067" width="5" height="2" fill="black"></rect><rect x="100" y="157.9310344827586" width="5" height="2" fill="black"></rect><rect x="100" y="164.82758620689654" width="5" height="2" fill="black"></rect><rect x="100" y="171.72413793103448" width="5" height="2" fill="black"></rect><rect x="100" y="178.6206896551724" width="5" height="2" fill="black"></rect><rect x="100" y="185.51724137931035" width="5" height="2" fill="black"></rect><rect x="100" y="192.41379310344826" width="5" height="2" fill="black"></rect><rect x="100" y="199.3103448275862" width="5" height="2" fill="black"></rect><rect x="100" y="206.20689655172413" width="5" height="2" fill="black"></rect><rect x="100" y="213.10344827586206" width="5" height="2" fill="black"></rect><text x="90" y="20" font-family="Arial" font-size="12" fill="black" text-anchor="end" dominant-baseline="middle">29</text><text x="90" y="26.89655172413793" font-family="Arial" font-size="12" fill="black" text-anchor="end" dominant-baseline="middle"></text><text x="90" y="33.79310344827586" font-family="Arial" font-size="12" fill="black" text-anchor="end" dominant-baseline="middle"></text><text x="90" y="40.689655172413794" font-family="Arial" font-size="12" fill="black" text-anchor="end" dominant-baseline="middle"></text><text x="90" y="47.58620689655172" font-family="Arial" font-size="12" fill="black" text-anchor="end" dominant-baseline="middle"></text><text x="90" y="54.48275862068965" font-family="Arial" font-size="12" fill="black" text-anchor="end" dominant-baseline="middle"></text><text x="90" y="61.37931034482759" font-family="Arial" font-size="12" fill="black" text-anchor="end" dominant-baseline="middle"></text><text x="90" y="68.27586206896552" font-family="Arial" font-size="12" fill="black" text-anchor="end" dominant-baseline="middle"></text><text x="90" y="75.17241379310344" font-family="Arial" font-size="12" fill="black" text-anchor="end" dominant-baseline="middle"></text><text x="90" y="82.06896551724137" font-family="Arial" font-size="12" fill="black" text-anchor="end" dominant-baseline="middle"></text><text x="90" y="88.9655172413793" font-family="Arial" font-size="12" fill="black" text-anchor="end" dominant-baseline="middle"></text><text x="90" y="95.86206896551724" font-family="Arial" font-size="12" fill="black" text-anchor="end" dominant-baseline="middle"></text><text x="90" y="102.75862068965517" font-family="Arial" font-size="12" fill="black" text-anchor="end" dominant-baseline="middle"></text><text x="90" y="109.6551724137931" font-family="Arial" font-size="12" fill="black" text-anchor="end" dominant-baseline="middle"></text><text x="90" y="116.55172413793103" font-family="Arial" font-size="12" fill="black" text-anchor="end" dominant-baseline="middle"></text><text x="90" y="123.44827586206895" font-family="Arial" font-size="12" fill="black" text-anchor="end" dominant-baseline="middle"></text><text x="90" y="130.3448275862069" font-family="Arial" font-size="12" fill="black" text-anchor="end" dominant-baseline="middle"></text><text x="90" y="137.24137931034483" font-family="Arial" font-size="12" fill="black" text-anchor="end" dominant-baseline="middle"></text><text x="90" y="144.13793103448273" font-family="Arial" font-size="12" fill="black" text-anchor="end" dominant-baseline="middle"></text><text x="90" y="151.03448275862067" font-family="Arial" font-size="12" fill="black" text-anchor="end" dominant-baseline="middle"></text><text x="90" y="157.9310344827586" font-family="Arial" font-size="12" fill="black" text-anchor="end" dominant-baseline="middle"></text><text x="90" y="164.82758620689654" font-family="Arial" font-size="12" fill="black" text-anchor="end" dominant-baseline="middle"></text><text x="90" y="171.72413793103448" font-family="Arial" font-size="12" fill="black" text-anchor="end" dominant-baseline="middle"></text><text x="90" y="178.6206896551724" font-family="Arial" font-size="12" fill="black" text-anchor="end" dominant-baseline="middle"></text><text x="90" y="185.51724137931035" font-family="Arial" font-size="12" fill="black" text-anchor="end" dominant-baseline="middle"></text><text x="90" y="192.41379310344826" font-family="Arial" font-size="12" fill="black" text-anchor="end" dominant-baseline="middle"></text><text x="90" y="199.3103448275862" font-family="Arial" font-size="12" fill="black" text-anchor="end" dominant-baseline="middle"></text><text x="90" y="206.20689655172413" font-family="Arial" font-size="12" fill="black" text-anchor="end" dominant-baseline="middle"></text><text x="90" y="213.10344827586206" font-family="Arial" font-size="12" fill="black" text-anchor="end" dominant-baseline="middle"></text><text x="90" y="220" font-family="Arial" font-size="12" fill="black" text-anchor="end" dominant-baseline="middle"></text><text x="100" y="230" font-family="Arial" fill="black" text-anchor="middle" dominant-baseline="hanging">Jul 25, '23</text><text x="799" y="230" font-family="Arial" fill="black" text-anchor="middle" dominant-baseline="hanging">26</text><text x="1498" y="230" font-family="Arial" fill="black" text-anchor="middle" dominant-baseline="hanging">27</text><rect x="100" y="20" width="2" height="200" fill="black"></rect><rect x="799" y="200" width="2" height="20" fill="black"></rect><rect x="1498" y="200" width="2" height="20" fill="black"></rect></svg>