<svg xmlns="http://www.w3.org/2000/svg" width="1600" height="300"><rect x="100" y="20" width="1400" height="200" fill="rgba(221, 239, 250, .3)"></rect><clipPath id="theGraph"><rect x="100" y="20" width="1400" height="200" fill="black"></rect></clipPath><rect x="100" y="250" width="15" height="15" fill="#51565E" stroke="black" stroke-width="0.25"></rect><text x="120" y="265" font-family="Arial" font-size="12" fill="black">Not started</text><rect x="220" y="250" width="15" height="15" fill="#FF6666" stroke="black" stroke-width="0.25"></rect><text x="240" y="265" font-family="Arial" font-size="12" fill="black">BLOCKED</text><rect x="340" y="250" width="15" height="15" fill="#41659E" stroke="black" stroke-width="0.25"></rect><text x="360" y="265" font-family="Arial" font-size="12" fill="black">Scheduled</text><rect x="460" y="250" width="15" height="15" fill="#519E41" stroke="black" stroke-width="0.25"></rect><text x="480" y="265" font-family="Arial" font-size="12" fill="black">In progress</text><path d="M 100 220 M 100 220 C 158.97435897435898 220 1441.025641025641 102.05128205128204 1500 102.05128205128204 C 1500 102.05128205128204 1500 220 1500 220 C 1500 220 100 220 100 220 Z" fill="#519E41" stroke="black" stroke-width="0.25"></path><path d="M 100 220 M 100 220 C 156.4102564102564 220 1443.5897435897436 107.17948717948717 1500 107.17948717948717 C 1500 107.17948717948717 1500 220 1500 220 C 1500 220 100 220 100 220 Z" fill="#41659E" stroke="black" stroke-width="0.25"></path><path d="M 100 220 M 100 220 C 148.71794871794873 220 1451.2820512820513 122.56410256410255 1500 122.56410256410255 C 1500 122.56410256410255 1500 220 1500 220 C 1500 220 100 220 100 220 Z" fill="#FF6666" stroke="black" stroke-width="0.25"></path><path d="M 100 220 M 100 220 C 148.71794871794873 220 1451.2820512820513 122.56410256410255 1500 122.56410256410255 C 1500 122.56410256410255 1500 220 1500 220 C 1500 220 100 220 100 220 Z" fill="#51565E" stroke="black" stroke-width="0.25"></path><text x="800" y="40" font-family="Arial" font-size="16" fill="black" text-anchor="middle" alignment-baseline="middle">TERENTIA - MARKETING</text><rect x="100" y="220" width="1400" height="2" fill="black"></rect><rect x="100" y="20" width="5" height="2" fill="black"></rect><rect x="100" y="25.128205128205128" width="5" height="2" fill="black"></rect><rect x="100" y="30.256410256410255" width="5" height="2" fill="black"></rect><rect x="100" y="35.38461538461539" width="5" height="2" fill="black"></rect><rect x="100" y="40.51282051282051" width="5" height="2" fill="black"></rect><rect x="100" y="45.64102564102564" width="5" height="2" fill="black"></rect><rect x="100" y="50.769230769230774" width="5" height="2" fill="black"></rect><rect x="100" y="55.8974358974359" width="5" height="2" fill="black"></rect><rect x="100" y="61.02564102564103" width="5" height="2" fill="black"></rect><rect x="100" y="66.15384615384616" width="5" height="2" fill="black"></rect><rect x="100" y="71.28205128205128" width="5" height="2" fill="black"></rect><rect x="100" y="76.41025641025641" width="5" height="2" fill="black"></rect><rect x="100" y="81.53846153846155" width="5" height="2" fill="black"></rect><rect x="100" y="86.66666666666667" width="5" height="2" fill="black"></rect><rect x="100" y="91.7948717948718" width="5" height="2" fill="black"></rect><rect x="100" y="96.92307692307693" width="5" height="2" fill="black"></rect><rect x="100" y="102.05128205128206" width="5" height="2" fill="black"></rect><rect x="100" y="107.17948717948718" width="5" height="2" fill="black"></rect><rect x="100" y="112.30769230769232" width="5" height="2" fill="black"></rect><rect x="100" y="117.43589743589745" width="5" height="2" fill="black"></rect><rect x="100" y="122.56410256410257" width="5" height="2" fill="black"></rect><rect x="100" y="127.69230769230771" width="5" height="2" fill="black"></rect><rect x="100" y="132.82051282051282" width="5" height="2" fill="black"></rect><rect x="100" y="137.94871794871796" width="5" height="2" fill="black"></rect><rect x="100" y="143.0769230769231" width="5" height="2" fill="black"></rect><rect x="100" y="148.2051282051282" width="5" height="2" fill="black"></rect><rect x="100" y="153.33333333333334" width="5" height="2" fill="black"></rect><rect x="100" y="158.46153846153848" width="5" height="2" fill="black"></rect><rect x="100" y="163.5897435897436" width="5" height="2" fill="black"></rect><rect x="100" y="168.71794871794873" width="5" height="2" fill="black"></rect><rect x="100" y="173.84615384615387" width="5" height="2" fill="black"></rect><rect x="100" y="178.97435897435898" width="5" height="2" fill="black"></rect><rect x="100" y="184.10256410256412" width="5" height="2" fill="black"></rect><rect x="100" y="189.23076923076925" width="5" height="2" fill="black"></rect><rect x="100" y="194.35897435897436" width="5" height="2" fill="black"></rect><rect x="100" y="199.4871794871795" width="5" height="2" fill="black"></rect><rect x="100" y="204.61538461538464" width="5" height="2" fill="black"></rect><rect x="100" y="209.74358974358975" width="5" height="2" fill="black"></rect><rect x="100" y="214.8717948717949" width="5" height="2" fill="black"></rect><text x="90" y="20" font-family="Arial" font-size="12" fill="black" text-anchor="end" dominant-baseline="middle">39</text><text x="90" y="25.128205128205128" font-family="Arial" font-size="12" fill="black" text-anchor="end" dominant-baseline="middle"></text><text x="90" y="30.256410256410255" font-family="Arial" font-size="12" fill="black" text-anchor="end" dominant-baseline="middle"></text><text x="90" y="35.38461538461539" font-family="Arial" font-size="12" fill="black" text-anchor="end" dominant-baseline="middle"></text><text x="90" y="40.51282051282051" font-family="Arial" font-size="12" fill="black" text-anchor="end" dominant-baseline="middle"></text><text x="90" y="45.64102564102564" font-family="Arial" font-size="12" fill="black" text-anchor="end" dominant-baseline="middle"></text><text x="90" y="50.769230769230774" font-family="Arial" font-size="12" fill="black" text-anchor="end" dominant-baseline="middle"></text><text x="90" y="55.8974358974359" font-family="Arial" font-size="12" fill="black" text-anchor="end" dominant-baseline="middle"></text><text x="90" y="61.02564102564103" font-family="Arial" font-size="12" fill="black" text-anchor="end" dominant-baseline="middle"></text><text x="90" y="66.15384615384616" font-family="Arial" font-size="12" fill="black" text-anchor="end" dominant-baseline="middle"></text><text x="90" y="71.28205128205128" font-family="Arial" font-size="12" fill="black" text-anchor="end" dominant-baseline="middle"></text><text x="90" y="76.41025641025641" font-family="Arial" font-size="12" fill="black" text-anchor="end" dominant-baseline="middle"></text><text x="90" y="81.53846153846155" font-family="Arial" font-size="12" fill="black" text-anchor="end" dominant-baseline="middle"></text><text x="90" y="86.66666666666667" font-family="Arial" font-size="12" fill="black" text-anchor="end" dominant-baseline="middle"></text><text x="90" y="91.7948717948718" font-family="Arial" font-size="12" fill="black" text-anchor="end" dominant-baseline="middle"></text><text x="90" y="96.92307692307693" font-family="Arial" font-size="12" fill="black" text-anchor="end" dominant-baseline="middle"></text><text x="90" y="102.05128205128206" font-family="Arial" font-size="12" fill="black" text-anchor="end" dominant-baseline="middle"></text><text x="90" y="107.17948717948718" font-family="Arial" font-size="12" fill="black" text-anchor="end" dominant-baseline="middle"></text><text x="90" y="112.30769230769232" font-family="Arial" font-size="12" fill="black" text-anchor="end" dominant-baseline="middle"></text><text x="90" y="117.43589743589745" font-family="Arial" font-size="12" fill="black" text-anchor="end" dominant-baseline="middle"></text><text x="90" y="122.56410256410257" font-family="Arial" font-size="12" fill="black" text-anchor="end" dominant-baseline="middle"></text><text x="90" y="127.69230769230771" font-family="Arial" font-size="12" fill="black" text-anchor="end" dominant-baseline="middle"></text><text x="90" y="132.82051282051282" font-family="Arial" font-size="12" fill="black" text-anchor="end" dominant-baseline="middle"></text><text x="90" y="137.94871794871796" font-family="Arial" font-size="12" fill="black" text-anchor="end" dominant-baseline="middle"></text><text x="90" y="143.0769230769231" font-family="Arial" font-size="12" fill="black" text-anchor="end" dominant-baseline="middle"></text><text x="90" y="148.2051282051282" font-family="Arial" font-size="12" fill="black" text-anchor="end" dominant-baseline="middle"></text><text x="90" y="153.33333333333334" font-family="Arial" font-size="12" fill="black" text-anchor="end" dominant-baseline="middle"></text><text x="90" y="158.46153846153848" font-family="Arial" font-size="12" fill="black" text-anchor="end" dominant-baseline="middle"></text><text x="90" y="163.5897435897436" font-family="Arial" font-size="12" fill="black" text-anchor="end" dominant-baseline="middle"></text><text x="90" y="168.71794871794873" font-family="Arial" font-size="12" fill="black" text-anchor="end" dominant-baseline="middle"></text><text x="90" y="173.84615384615387" font-family="Arial" font-size="12" fill="black" text-anchor="end" dominant-baseline="middle"></text><text x="90" y="178.97435897435898" font-family="Arial" font-size="12" fill="black" text-anchor="end" dominant-baseline="middle"></text><text x="90" y="184.10256410256412" font-family="Arial" font-size="12" fill="black" text-anchor="end" dominant-baseline="middle">7</text><text x="90" y="189.23076923076925" font-family="Arial" font-size="12" fill="black" text-anchor="end" dominant-baseline="middle"></text><text x="90" y="194.35897435897436" font-family="Arial" font-size="12" fill="black" text-anchor="end" dominant-baseline="middle"></text><text x="90" y="199.4871794871795" font-family="Arial" font-size="12" fill="black" text-anchor="end" dominant-baseline="middle"></text><text x="90" y="204.61538461538464" font-family="Arial" font-size="12" fill="black" text-anchor="end" dominant-baseline="middle"></text><text x="90" y="209.74358974358975" font-family="Arial" font-size="12" fill="black" text-anchor="end" dominant-baseline="middle"></text><text x="90" y="214.8717948717949" font-family="Arial" font-size="12" fill="black" text-anchor="end" dominant-baseline="middle"></text><text x="90" y="220.00000000000003" font-family="Arial" font-size="12" fill="black" text-anchor="end" dominant-baseline="middle"></text><text x="100" y="230" font-family="Arial" fill="black" text-anchor="middle" dominant-baseline="hanging">Aug 3, '23</text><text x="1498" y="230" font-family="Arial" fill="black" text-anchor="middle" dominant-baseline="hanging">4</text><rect x="100" y="20" width="2" height="200" fill="black"></rect><rect x="1498" y="200" width="2" height="20" fill="black"></rect></svg>