<svg xmlns="http://www.w3.org/2000/svg" width="1600" height="300"><rect x="100" y="20" width="1400" height="200" fill="rgba(221, 239, 250, .3)"></rect><clipPath id="theGraph"><rect x="100" y="20" width="1400" height="200" fill="black"></rect></clipPath><rect x="100" y="250" width="15" height="15" fill="#51565E" stroke="black" stroke-width="0.25"></rect><text x="120" y="265" font-family="Arial" font-size="12" fill="black">Not started</text><rect x="220" y="250" width="15" height="15" fill="#FF6666" stroke="black" stroke-width="0.25"></rect><text x="240" y="265" font-family="Arial" font-size="12" fill="black">BLOCKED</text><rect x="340" y="250" width="15" height="15" fill="#41659E" stroke="black" stroke-width="0.25"></rect><text x="360" y="265" font-family="Arial" font-size="12" fill="black">Scheduled</text><rect x="460" y="250" width="15" height="15" fill="#519E41" stroke="black" stroke-width="0.25"></rect><text x="480" y="265" font-family="Arial" font-size="12" fill="black">In progress</text><path d="M 100 110.9090909090909 M 100 110.9090909090909 C 100 110.9090909090909 800 110.9090909090909 800 110.9090909090909 C 800 110.9090909090909 1500 110.9090909090909 1500 110.9090909090909 C 1500 110.9090909090909 1500 220 1500 220 C 1500 220 100 220 100 220 Z" fill="#519E41" stroke="black" stroke-width="0.25"></path><path d="M 100 147.27272727272725 M 100 147.27272727272725 C 100 147.27272727272725 800 147.27272727272725 800 147.27272727272725 C 800 147.27272727272725 1500 147.27272727272725 1500 147.27272727272725 C 1500 147.27272727272725 1500 220 1500 220 C 1500 220 100 220 100 220 Z" fill="#41659E" stroke="black" stroke-width="0.25"></path><path d="M 100 183.63636363636363 M 100 183.63636363636363 C 100 183.63636363636363 800 183.63636363636363 800 183.63636363636363 C 800 183.63636363636363 1500 183.63636363636363 1500 183.63636363636363 C 1500 183.63636363636363 1500 220 1500 220 C 1500 220 100 220 100 220 Z" fill="#FF6666" stroke="black" stroke-width="0.25"></path><path d="M 100 201.8181818181818 M 100 201.8181818181818 C 100 201.8181818181818 800 201.8181818181818 800 201.8181818181818 C 800 201.8181818181818 1500 201.8181818181818 1500 201.8181818181818 C 1500 201.8181818181818 1500 220 1500 220 C 1500 220 100 220 100 220 Z" fill="#51565E" stroke="black" stroke-width="0.25"></path><text x="800" y="40" font-family="Arial" font-size="16" fill="black" text-anchor="middle" alignment-baseline="middle">CHRIS TEST PROJECT</text><rect x="100" y="220" width="1400" height="2" fill="black"></rect><rect x="100" y="20" width="5" height="2" fill="black"></rect><rect x="100" y="38.18181818181819" width="5" height="2" fill="black"></rect><rect x="100" y="56.36363636363637" width="5" height="2" fill="black"></rect><rect x="100" y="74.54545454545455" width="5" height="2" fill="black"></rect><rect x="100" y="92.72727272727273" width="5" height="2" fill="black"></rect><rect x="100" y="110.90909090909092" width="5" height="2" fill="black"></rect><rect x="100" y="129.0909090909091" width="5" height="2" fill="black"></rect><rect x="100" y="147.27272727272728" width="5" height="2" fill="black"></rect><rect x="100" y="165.45454545454547" width="5" height="2" fill="black"></rect><rect x="100" y="183.63636363636365" width="5" height="2" fill="black"></rect><rect x="100" y="201.81818181818184" width="5" height="2" fill="black"></rect><text x="90" y="20" font-family="Arial" font-size="12" fill="black" text-anchor="end" dominant-baseline="middle">11</text><text x="90" y="38.18181818181819" font-family="Arial" font-size="12" fill="black" text-anchor="end" dominant-baseline="middle"></text><text x="90" y="56.36363636363637" font-family="Arial" font-size="12" fill="black" text-anchor="end" dominant-baseline="middle"></text><text x="90" y="74.54545454545455" font-family="Arial" font-size="12" fill="black" text-anchor="end" dominant-baseline="middle"></text><text x="90" y="92.72727272727273" font-family="Arial" font-size="12" fill="black" text-anchor="end" dominant-baseline="middle"></text><text x="90" y="110.90909090909092" font-family="Arial" font-size="12" fill="black" text-anchor="end" dominant-baseline="middle"></text><text x="90" y="129.0909090909091" font-family="Arial" font-size="12" fill="black" text-anchor="end" dominant-baseline="middle"></text><text x="90" y="147.27272727272728" font-family="Arial" font-size="12" fill="black" text-anchor="end" dominant-baseline="middle"></text><text x="90" y="165.45454545454547" font-family="Arial" font-size="12" fill="black" text-anchor="end" dominant-baseline="middle">3</text><text x="90" y="183.63636363636365" font-family="Arial" font-size="12" fill="black" text-anchor="end" dominant-baseline="middle"></text><text x="90" y="201.81818181818184" font-family="Arial" font-size="12" fill="black" text-anchor="end" dominant-baseline="middle"></text><text x="90" y="220.00000000000003" font-family="Arial" font-size="12" fill="black" text-anchor="end" dominant-baseline="middle"></text><text x="100" y="230" font-family="Arial" fill="black" text-anchor="middle" dominant-baseline="hanging">Jul 25, '23</text><text x="799" y="230" font-family="Arial" fill="black" text-anchor="middle" dominant-baseline="hanging">26</text><text x="1498" y="230" font-family="Arial" fill="black" text-anchor="middle" dominant-baseline="hanging">27</text><rect x="100" y="20" width="2" height="200" fill="black"></rect><rect x="799" y="200" width="2" height="20" fill="black"></rect><rect x="1498" y="200" width="2" height="20" fill="black"></rect></svg>