<svg xmlns="http://www.w3.org/2000/svg" width="1600" height="300"><rect x="100" y="20" width="1400" height="200" fill="rgba(221, 239, 250, .3)"></rect><clipPath id="theGraph"><rect x="100" y="20" width="1400" height="200" fill="black"></rect></clipPath><rect x="100" y="250" width="15" height="15" fill="#51565E" stroke="black" stroke-width="0.25"></rect><text x="120" y="265" font-family="Arial" font-size="12" fill="black">Not started</text><rect x="220" y="250" width="15" height="15" fill="#FF6666" stroke="black" stroke-width="0.25"></rect><text x="240" y="265" font-family="Arial" font-size="12" fill="black">BLOCKED</text><rect x="340" y="250" width="15" height="15" fill="#41659E" stroke="black" stroke-width="0.25"></rect><text x="360" y="265" font-family="Arial" font-size="12" fill="black">Scheduled</text><rect x="460" y="250" width="15" height="15" fill="#519E41" stroke="black" stroke-width="0.25"></rect><text x="480" y="265" font-family="Arial" font-size="12" fill="black">In progress</text><path d="M 100 191.42857142857142 M 100 191.42857142857142 C 100 191.42857142857142 800 191.42857142857142 800 191.42857142857142 C 814.2857142857142 191.42857142857142 1485.7142857142858 162.85714285714286 1500 162.85714285714286 C 1500 162.85714285714286 1500 220 1500 220 C 1500 220 100 220 100 220 Z" fill="#519E41" stroke="black" stroke-width="0.25"></path><path d="M 100 220 M 100 220 C 100 220 800 220 800 220 C 814.2857142857143 220 1485.7142857142858 191.42857142857142 1500 191.42857142857142 C 1500 191.42857142857142 1500 220 1500 220 C 1500 220 100 220 100 220 Z" fill="#41659E" stroke="black" stroke-width="0.25"></path><path d="M 100 220 M 100 220 C 100 220 800 220 800 220 C 814.2857142857143 220 1485.7142857142858 191.42857142857142 1500 191.42857142857142 C 1500 191.42857142857142 1500 220 1500 220 C 1500 220 100 220 100 220 Z" fill="#FF6666" stroke="black" stroke-width="0.25"></path><path d="M 100 220 M 100 220 C 100 220 800 220 800 220 C 814.2857142857143 220 1485.7142857142858 191.42857142857142 1500 191.42857142857142 C 1500 191.42857142857142 1500 220 1500 220 C 1500 220 100 220 100 220 Z" fill="#51565E" stroke="black" stroke-width="0.25"></path><text x="800" y="40" font-family="Arial" font-size="16" fill="black" text-anchor="middle" alignment-baseline="middle">QR CODES FOR EXHIBITS</text><rect x="100" y="220" width="1400" height="2" fill="black"></rect><rect x="100" y="20" width="5" height="2" fill="black"></rect><rect x="100" y="48.57142857142857" width="5" height="2" fill="black"></rect><rect x="100" y="77.14285714285714" width="5" height="2" fill="black"></rect><rect x="100" y="105.71428571428572" width="5" height="2" fill="black"></rect><rect x="100" y="134.28571428571428" width="5" height="2" fill="black"></rect><rect x="100" y="162.85714285714286" width="5" height="2" fill="black"></rect><rect x="100" y="191.42857142857144" width="5" height="2" fill="black"></rect><text x="90" y="20" font-family="Arial" font-size="12" fill="black" text-anchor="end" dominant-baseline="middle">7</text><text x="90" y="48.57142857142857" font-family="Arial" font-size="12" fill="black" text-anchor="end" dominant-baseline="middle">6</text><text x="90" y="77.14285714285714" font-family="Arial" font-size="12" fill="black" text-anchor="end" dominant-baseline="middle">5</text><text x="90" y="105.71428571428572" font-family="Arial" font-size="12" fill="black" text-anchor="end" dominant-baseline="middle">4</text><text x="90" y="134.28571428571428" font-family="Arial" font-size="12" fill="black" text-anchor="end" dominant-baseline="middle">3</text><text x="90" y="162.85714285714286" font-family="Arial" font-size="12" fill="black" text-anchor="end" dominant-baseline="middle">2</text><text x="90" y="191.42857142857144" font-family="Arial" font-size="12" fill="black" text-anchor="end" dominant-baseline="middle">1</text><text x="90" y="220" font-family="Arial" font-size="12" fill="black" text-anchor="end" dominant-baseline="middle">0</text><text x="100" y="230" font-family="Arial" fill="black" text-anchor="middle" dominant-baseline="hanging">Aug 3, '23</text><text x="799" y="230" font-family="Arial" fill="black" text-anchor="middle" dominant-baseline="hanging">4</text><text x="1498" y="230" font-family="Arial" fill="black" text-anchor="middle" dominant-baseline="hanging">5</text><rect x="100" y="20" width="2" height="200" fill="black"></rect><rect x="799" y="200" width="2" height="20" fill="black"></rect><rect x="1498" y="200" width="2" height="20" fill="black"></rect></svg>