<svg xmlns="http://www.w3.org/2000/svg" width="1600" height="300"><rect x="100" y="20" width="1400" height="200" fill="rgba(221, 239, 250, .3)"></rect><clipPath id="theGraph"><rect x="100" y="20" width="1400" height="200" fill="black"></rect></clipPath><rect x="100" y="250" width="15" height="15" fill="#51565E" stroke="black" stroke-width="0.25"></rect><text x="120" y="265" font-family="Arial" font-size="12" fill="black">Not started</text><rect x="220" y="250" width="15" height="15" fill="#FF6666" stroke="black" stroke-width="0.25"></rect><text x="240" y="265" font-family="Arial" font-size="12" fill="black">BLOCKED</text><rect x="340" y="250" width="15" height="15" fill="#41659E" stroke="black" stroke-width="0.25"></rect><text x="360" y="265" font-family="Arial" font-size="12" fill="black">Scheduled</text><rect x="460" y="250" width="15" height="15" fill="#519E41" stroke="black" stroke-width="0.25"></rect><text x="480" y="265" font-family="Arial" font-size="12" fill="black">In progress</text><path d="M 100 108.88888888888889 M 100 108.88888888888889 C 100 108.88888888888889 800 108.88888888888889 800 108.88888888888889 C 800 108.88888888888889 1500 108.88888888888889 1500 108.88888888888889 C 1500 108.88888888888889 1500 220 1500 220 C 1500 220 100 220 100 220 Z" fill="#519E41" stroke="black" stroke-width="0.25"></path><path d="M 100 175.55555555555554 M 100 175.55555555555554 C 100 175.55555555555554 800 175.55555555555554 800 175.55555555555554 C 800 175.55555555555554 1500 175.55555555555554 1500 175.55555555555554 C 1500 175.55555555555554 1500 220 1500 220 C 1500 220 100 220 100 220 Z" fill="#41659E" stroke="black" stroke-width="0.25"></path><path d="M 100 220 M 100 220 C 100 220 800 220 800 220 C 800 220 1500 220 1500 220 C 1500 220 1500 220 1500 220 C 1500 220 100 220 100 220 Z" fill="#FF6666" stroke="black" stroke-width="0.25"></path><path d="M 100 220 M 100 220 C 100 220 800 220 800 220 C 800 220 1500 220 1500 220 C 1500 220 1500 220 1500 220 C 1500 220 100 220 100 220 Z" fill="#51565E" stroke="black" stroke-width="0.25"></path><text x="800" y="40" font-family="Arial" font-size="16" fill="black" text-anchor="middle" alignment-baseline="middle">KIRTLANDIA RESEARCH INTERNSHIP: KIMBER WATKINS</text><rect x="100" y="220" width="1400" height="2" fill="black"></rect><rect x="100" y="20" width="5" height="2" fill="black"></rect><rect x="100" y="42.22222222222222" width="5" height="2" fill="black"></rect><rect x="100" y="64.44444444444444" width="5" height="2" fill="black"></rect><rect x="100" y="86.66666666666666" width="5" height="2" fill="black"></rect><rect x="100" y="108.88888888888889" width="5" height="2" fill="black"></rect><rect x="100" y="131.11111111111111" width="5" height="2" fill="black"></rect><rect x="100" y="153.33333333333331" width="5" height="2" fill="black"></rect><rect x="100" y="175.55555555555554" width="5" height="2" fill="black"></rect><rect x="100" y="197.77777777777777" width="5" height="2" fill="black"></rect><text x="90" y="20" font-family="Arial" font-size="12" fill="black" text-anchor="end" dominant-baseline="middle">9</text><text x="90" y="42.22222222222222" font-family="Arial" font-size="12" fill="black" text-anchor="end" dominant-baseline="middle">8</text><text x="90" y="64.44444444444444" font-family="Arial" font-size="12" fill="black" text-anchor="end" dominant-baseline="middle">7</text><text x="90" y="86.66666666666666" font-family="Arial" font-size="12" fill="black" text-anchor="end" dominant-baseline="middle">6</text><text x="90" y="108.88888888888889" font-family="Arial" font-size="12" fill="black" text-anchor="end" dominant-baseline="middle">5</text><text x="90" y="131.11111111111111" font-family="Arial" font-size="12" fill="black" text-anchor="end" dominant-baseline="middle">4</text><text x="90" y="153.33333333333331" font-family="Arial" font-size="12" fill="black" text-anchor="end" dominant-baseline="middle">3</text><text x="90" y="175.55555555555554" font-family="Arial" font-size="12" fill="black" text-anchor="end" dominant-baseline="middle">2</text><text x="90" y="197.77777777777777" font-family="Arial" font-size="12" fill="black" text-anchor="end" dominant-baseline="middle">1</text><text x="90" y="220" font-family="Arial" font-size="12" fill="black" text-anchor="end" dominant-baseline="middle">0</text><text x="100" y="230" font-family="Arial" fill="black" text-anchor="middle" dominant-baseline="hanging">Jul 25, '23</text><text x="799" y="230" font-family="Arial" fill="black" text-anchor="middle" dominant-baseline="hanging">26</text><text x="1498" y="230" font-family="Arial" fill="black" text-anchor="middle" dominant-baseline="hanging">27</text><rect x="100" y="20" width="2" height="200" fill="black"></rect><rect x="799" y="200" width="2" height="20" fill="black"></rect><rect x="1498" y="200" width="2" height="20" fill="black"></rect></svg>